<svg width="454" height="179" viewBox="0 0 454 179" fill="none" xmlns="http://www.w3.org/2000/svg">
<path d="M24.2283 172.908L32.2504 161.601C32.8037 160.774 33.6336 160.498 34.4635 160.498C35.2933 160.498 36.1232 161.05 36.6765 161.877L43.0389 173.184H69.5951V149.192C69.5951 147.813 70.7016 146.71 72.0847 146.71H75.4043V143.401C75.4043 142.573 75.9575 141.746 76.5108 141.194V136.231C76.5108 134.852 77.6173 133.749 79.0004 133.749C80.3836 133.749 81.4901 134.852 81.4901 136.231V140.643H86.4693V121.063C86.4693 120.236 86.746 119.409 87.5758 118.857L92.2785 115.548V74.7338C92.2785 73.3549 93.385 72.2518 94.7682 72.2518H101.131L114.685 29.7832C114.962 28.6801 116.068 28.1286 117.175 28.1286C118.281 28.1286 119.388 28.9559 119.665 30.059L131.283 72.5276H137.645C139.029 72.5276 140.135 73.6307 140.135 75.0095V114.169L144.284 118.305C144.838 118.857 145.114 119.409 145.114 120.236V140.091H149.54V135.955C149.54 134.576 150.647 133.473 152.03 133.473C153.413 133.473 154.52 134.576 154.52 135.955V140.367C155.349 140.919 155.903 141.746 155.903 142.573V146.71H158.669C160.052 146.71 161.159 147.813 161.159 149.192V170.426C166.138 167.117 175.267 161.877 183.565 161.326V157.465C183.565 156.086 184.672 154.983 186.055 154.983H205.696C207.079 154.983 208.185 156.086 208.185 157.465V161.05H216.207C216.761 161.05 217.037 161.05 217.591 161.326L222.846 164.359L227.549 159.395V149.192C226.166 147.537 223.123 143.125 223.676 137.058C224.506 128.509 231.699 120.236 244.7 111.963V104.241C244.7 102.862 245.807 101.759 247.19 101.759C248.573 101.759 249.679 102.862 249.679 104.241V111.963L254.382 114.445C256.872 113.617 264.617 110.032 266.277 98.45C266.554 97.3469 267.383 96.2439 268.767 96.2439C269.873 95.9681 270.98 97.0711 271.533 98.1742C271.809 99.0015 271.809 99.8289 271.809 100.932L271.848 101.331C272.101 104.007 272.403 107.196 278.725 111.135C284.69 99.0368 295.244 75.9595 301.174 62.9931L301.176 62.9882C303.22 58.5205 304.714 55.2525 305.281 54.051V37.5048C303.898 36.1259 301.409 33.3682 300.855 29.2317C300.025 22.889 303.622 15.4432 311.367 7.44583V2.48195C311.367 1.1031 312.474 0 313.857 0C315.24 0 316.346 1.1031 316.346 2.48195V7.17004C324.092 15.7189 327.412 23.4405 326.582 30.059C326.028 33.9198 324.092 36.4017 322.709 37.5048V55.1541L356.734 120.512C361.16 116.651 370.565 108.378 373.055 106.172C375.268 104.241 377.758 97.8985 378.864 94.3135C379.141 93.2104 380.247 92.383 381.354 92.383C382.46 92.383 383.567 93.2104 383.843 94.0377C385.503 99.2773 387.993 103.414 389.376 104.517L407.08 83.5584V78.043C407.08 76.6641 408.187 75.5611 409.57 75.5611C410.953 75.5611 412.059 76.6641 412.059 78.043V83.5584L420.635 94.3135C423.401 95.9681 438.062 105.62 439.445 118.857C440.275 125.751 437.509 132.094 431.147 138.161V172.632H453.553C453.759 173.197 454.128 174.662 453.955 176.008C453.782 177.354 451.592 177.995 450.518 178.148H428.388C427.005 178.148 425.898 177.045 425.898 175.666V137.61C425.898 136.782 426.175 136.231 426.728 135.679C432.261 130.715 434.75 125.2 434.197 119.96C432.814 108.102 417.599 99.0017 417.599 99.0017C417.461 98.8638 417.323 98.7949 417.184 98.7259C417.046 98.657 416.908 98.5881 416.769 98.4502L409.301 89.074L392.426 109.205C392.288 109.343 392.08 109.481 391.873 109.619C391.665 109.757 391.458 109.895 391.32 110.033C386.894 111.411 383.574 106.999 381.361 102.587C379.978 105.62 378.318 108.654 376.382 110.584C375.075 111.742 371.786 114.572 368.316 117.558C365.176 120.26 361.887 123.09 359.784 124.924C363.934 128.785 371.679 137.058 371.403 147.261C371.126 154.432 366.7 161.05 358.401 166.565V175.942C358.401 177.321 357.295 178.424 355.911 178.424C354.528 178.424 353.422 177.321 353.422 175.942V165.462V165.187V164.635C353.422 164.359 353.422 164.359 353.698 164.083C353.698 163.808 353.975 163.808 353.975 163.808L354.252 163.532C354.252 163.532 354.252 163.256 354.528 163.256C361.997 158.568 366.147 153.053 366.423 147.261C366.977 136.506 354.528 127.13 354.528 127.13L353.698 126.303L318.014 57.3604C317.737 57.0846 317.737 56.5331 317.737 56.2573V36.6776C317.737 35.8503 318.29 35.023 318.843 34.4714C318.843 34.4714 321.056 32.8168 321.61 29.5076C321.886 26.4741 321.056 21.2345 314.694 13.2371C314.556 13.2371 314.417 13.3061 314.279 13.375C314.141 13.444 314.002 13.5129 313.864 13.5129H313.311C306.672 20.9587 305.565 26.1983 305.842 29.2318C306.395 33.0926 309.162 34.7472 309.162 34.7472C309.991 35.2988 310.545 36.1261 310.545 36.9534V55.9815C310.545 56.2573 310.545 56.8089 310.268 57.0846C310.23 57.1609 309.816 58.0708 309.109 59.6231C304.709 69.2935 288.965 103.895 282.052 117.203C281.775 117.754 281.222 118.306 280.392 118.581C279.839 118.857 279.009 118.581 278.456 118.306C272.923 115.548 270.157 112.514 268.497 110.033C263.795 119.133 255.219 121.063 254.666 121.063C254.113 121.063 253.559 121.063 253.006 120.788L247.197 117.754C232.812 126.855 229.216 134.025 228.663 138.713C228.11 143.952 231.429 147.261 231.706 147.537C232.259 148.089 232.536 148.64 232.536 149.468V161.602C232.536 162.153 232.259 162.98 231.706 163.256L225.067 170.426C224.237 171.254 222.854 171.529 222.024 170.978L215.385 167.117H205.703C204.32 167.117 203.213 166.014 203.213 164.635V161.05H188.829V164.635C188.829 165.462 188.552 166.014 187.999 166.565C187.644 166.919 187.176 167.046 186.74 167.164C186.495 167.23 186.261 167.294 186.063 167.393C176.464 166.914 164.16 175.566 160.886 177.868L160.886 177.868C160.386 178.22 160.096 178.424 160.06 178.424C159.23 178.975 158.123 179.251 157.293 178.699C156.463 178.148 155.91 177.32 155.91 176.493V152.777H153.144C151.761 152.777 150.654 151.674 150.654 150.295V146.986C150.562 146.894 150.439 146.802 150.316 146.71L150.316 146.71C150.07 146.526 149.824 146.342 149.824 146.158H142.355C140.972 146.158 139.866 145.055 139.866 143.676V122.166L135.716 118.03C135.163 117.478 134.887 116.927 134.887 116.099V78.3189H129.077C127.971 78.3189 126.864 77.4916 126.588 76.3885L116.629 40.2626L105.011 76.1128C104.734 77.2158 103.628 77.7674 102.521 77.7674H96.712V117.203C96.712 118.03 96.4354 118.857 95.6055 119.409L90.9029 122.718V143.401C90.9029 144.78 89.7963 145.883 88.4132 145.883H80.1144C80.1144 146.158 79.8378 146.158 79.5611 146.158V149.192C79.5611 150.571 78.4547 151.674 77.0715 151.674H73.752V175.666C73.752 177.045 72.6455 178.148 71.2623 178.148H40.8334C40.0035 178.148 39.1736 177.596 38.6203 176.769L33.6411 167.944L27.2786 177.045C26.7254 177.596 25.8955 178.148 25.0656 178.148H2.65884C1.82857 177.959 0.135614 177.202 0.00594522 175.682C-0.123724 174.162 1.89993 173.016 2.92797 172.632H24.2283V172.908Z" fill="#1A2D84"/>
</svg>
