<svg width="166" height="166" viewBox="0 0 166 166" fill="none" xmlns="http://www.w3.org/2000/svg">
<path d="M123.594 41.9669C146.488 64.8616 146.488 101.981 123.594 124.876C100.699 147.771 63.5792 147.771 40.6845 124.876C17.7898 101.981 17.7898 64.8616 40.6845 41.9669C63.5792 19.0722 100.699 19.0722 123.594 41.9669Z" stroke="white"/>
<path d="M84.0287 9.83532L83.374 19.2486L84.5891 19.3331L84.896 14.9198L89.449 15.2364L89.1421 19.6498L90.3711 19.7352L91.0258 10.322L89.7968 10.2365L89.5229 14.175L84.9699 13.8583L85.2438 9.91983L84.0287 9.83532Z" fill="white"/>
<path d="M98.2607 18.1954L98.5998 21.3115L99.8707 21.5943L98.7777 11.6841L97.3428 11.3648L92.1633 19.8788L93.3932 20.1526L94.9946 17.4684L98.2607 18.1954ZM95.4474 16.5939L96.9425 14.1298C97.2448 13.6091 97.5199 13.0823 97.7782 12.5661L97.8055 12.5721C97.8235 13.1355 97.8385 13.7126 97.9097 14.3595L98.2215 17.2113L95.4474 16.5939Z" fill="white"/>
<path d="M105.528 13.4269L102.114 22.2236L103.25 22.6643L106.294 14.8203L110.379 16.4058L107.335 24.2497L108.47 24.6904L111.884 15.8937L105.528 13.4269Z" fill="white"/>
<path d="M110.859 25.777L111.921 26.3731L113.771 23.0769C113.981 23.275 114.267 23.4516 114.585 23.6298C115.622 24.2123 116.709 24.421 117.607 24.138C118.261 23.9437 118.81 23.4811 119.228 22.7363C119.639 22.0038 119.706 21.2549 119.474 20.6107C119.232 19.8971 118.6 19.2212 117.55 18.6319C116.696 18.1522 115.983 17.8486 115.423 17.6462L110.859 25.777ZM116.053 19.0115C116.264 19.0655 116.638 19.2276 117.102 19.488C118.274 20.1458 118.748 21.1025 118.139 22.189C117.501 23.3244 116.371 23.5084 115.089 22.7889C114.735 22.5902 114.455 22.4013 114.258 22.2101L116.053 19.0115Z" fill="white"/>
<path d="M123.838 30.5593L122.842 33.5313L123.878 34.3201L127.033 24.862L125.863 23.9715L117.596 29.5365L118.598 30.2999L121.176 28.5322L123.838 30.5593ZM121.953 27.9275L124.342 26.3152C124.835 25.9688 125.305 25.6054 125.756 25.2447L125.778 25.2617C125.559 25.7809 125.331 26.3112 125.125 26.9286L124.215 29.6492L121.953 27.9275Z" fill="white"/>
<path d="M125.589 35.7873C125.835 36.1149 126.249 36.6114 126.841 37.2075C127.926 38.3004 128.874 38.8582 129.765 38.901C130.428 38.9133 131.092 38.7079 131.668 38.1358C132.662 37.1494 132.449 35.8815 131.976 35.0878L131.996 35.0681C132.955 35.5171 133.945 35.3821 134.591 34.741C135.118 34.2182 135.308 33.615 135.221 33.0108C135.145 32.2582 134.741 31.5538 133.883 30.6895C133.282 30.0834 132.63 29.5465 132.176 29.2478L125.589 35.7873ZM132.448 30.6942C132.616 30.8037 132.872 31.0026 133.267 31.4C134.135 32.2743 134.419 33.1762 133.634 33.9554C132.988 34.5965 131.978 34.5335 131.071 33.6194L130.292 32.8345L132.448 30.6942ZM129.636 33.4855L130.346 34.2009C131.283 35.1447 131.685 36.3044 130.771 37.2119C129.797 38.1785 128.651 37.6793 127.763 36.7852C127.457 36.4772 127.22 36.2189 127.083 36.0204L129.636 33.4855Z" fill="white"/>
<path d="M139.443 36.7924L136.253 39.1664C135.041 40.0692 133.528 41.108 132.481 40.9446C132.179 40.8903 131.765 40.7096 131.483 40.4482L130.789 41.1568C131.115 41.5948 131.621 41.8991 132.009 42.0461C133.522 42.578 135.403 41.2829 137.043 40.0625L139.334 38.3572L141.198 40.8617L134.448 45.8854L135.184 46.8737L142.753 41.2398L139.443 36.7924Z" fill="white"/>
<path d="M144.107 51.2345L142.323 48.0293L144.929 46.5794L146.815 49.968L147.708 49.4711L145.23 45.0181L136.984 49.6063L139.564 54.2428L140.457 53.7459L138.47 50.1737L141.442 48.5195L143.226 51.7247L144.107 51.2345Z" fill="white"/>
<path d="M149.352 52.728L140.568 56.1751L141.013 57.3089L145.132 55.6928L146.799 59.9414L142.681 61.5575L143.131 62.7043L151.914 59.2573L151.464 58.1104L147.789 59.5527L146.122 55.3041L149.797 53.8619L149.352 52.728Z" fill="white"/>
<path d="M153.125 62.9369L143.907 64.9519L144.185 66.2238L149.398 68.1082C150.561 68.5131 151.765 68.9091 152.876 69.1392L152.871 69.1832C151.688 69.3416 150.591 69.5671 149.1 69.8929L145.175 70.7509L145.42 71.8725L154.638 69.8575L154.378 68.6676L148.98 66.7234C147.74 66.2924 146.616 65.9362 145.557 65.6804L145.564 65.6501C146.813 65.4631 148.023 65.2273 149.486 64.9075L153.37 64.0584L153.125 62.9369Z" fill="white"/>
<path d="M155.406 74.5999L145.984 75.1094L146.054 76.4095L150.897 79.1059C151.98 79.6923 153.105 80.2764 154.164 80.6818L154.153 80.7245C152.959 80.6909 151.84 80.7374 150.316 80.8198L146.304 81.0367L146.366 82.1831L155.788 81.6736L155.723 80.4573L150.707 77.6721C149.551 77.0476 148.499 76.5156 147.495 76.0932L147.507 76.0645C148.77 76.0803 150.002 76.0418 151.498 75.9609L155.468 75.7462L155.406 74.5999ZM157.471 76.2408C156.553 76.3605 156.009 76.9367 156.071 78.0831C156.135 79.2713 156.739 79.7995 157.665 79.8195L157.614 78.8829C157.15 78.8519 156.736 78.7201 156.702 78.077C156.666 77.42 157.092 77.2567 157.522 77.1774L157.471 76.2408Z" fill="white"/>
<path d="M144.832 96.952L150.103 94.8704L154.145 98.4733L154.381 97.0933L152.418 95.451C151.883 95.0045 151.496 94.6968 150.989 94.3402L150.996 94.2988C151.535 94.1353 152.049 93.9534 152.715 93.7122L155.106 92.8568L155.344 91.463L150.281 93.4097L146.062 89.7623L145.826 91.1423L147.677 92.6093C148.409 93.2315 148.861 93.5786 149.354 93.9329L149.349 93.9605C148.761 94.1582 148.199 94.3745 147.33 94.723L145.071 95.5582L144.832 96.952Z" fill="white"/>
<path d="M153.421 101.725L144.468 98.7448L144.057 99.9801L147.574 104.264C148.367 105.207 149.199 106.163 150.036 106.928L150.01 106.964C148.912 106.495 147.853 106.128 146.405 105.646L142.593 104.377L142.231 105.466L151.183 108.447L151.568 107.291L147.923 102.861C147.077 101.856 146.293 100.975 145.513 100.214L145.536 100.192C146.705 100.67 147.865 101.085 149.286 101.559L153.058 102.814L153.421 101.725Z" fill="white"/>
<path d="M140.994 108.542L140.445 109.63L143.82 111.332C143.632 111.55 143.468 111.844 143.304 112.169C142.768 113.232 142.608 114.327 142.93 115.211C143.153 115.856 143.64 116.384 144.402 116.768C145.152 117.147 145.904 117.181 146.537 116.92C147.239 116.647 147.886 115.985 148.428 114.91C148.87 114.035 149.141 113.31 149.319 112.741L140.994 108.542ZM147.983 113.431C147.938 113.644 147.793 114.025 147.553 114.5C146.948 115.7 146.013 116.217 144.901 115.656C143.738 115.069 143.504 113.948 144.166 112.635C144.349 112.273 144.525 111.985 144.708 111.78L147.983 113.431Z" fill="white"/>
<path d="M145.421 120.554L138.408 119.53C138.16 119.495 138.028 119.439 137.911 119.239C137.525 118.615 137.078 117.611 137.622 116.796C137.741 116.623 137.832 116.515 137.911 116.451L137.164 115.783C137.031 115.878 136.88 116.046 136.706 116.3C136.229 116.992 136.163 117.779 136.447 118.723C136.8 119.766 137.654 121.068 138.398 122.209L141.267 126.583L141.997 125.523L139.557 122.056C139.139 121.479 138.793 121.019 138.484 120.603L138.5 120.58C139.088 120.713 139.665 120.838 140.261 120.96L144.634 121.695L145.421 120.554Z" fill="white"/>
<path d="M132.175 122.945L131.359 123.849L134.164 126.383C133.924 126.544 133.689 126.784 133.445 127.054C132.647 127.937 132.203 128.951 132.281 129.889C132.325 130.57 132.655 131.208 133.289 131.78C133.912 132.343 134.628 132.574 135.308 132.49C136.057 132.412 136.856 131.945 137.663 131.052C138.32 130.325 138.774 129.697 139.095 129.195L132.175 122.945ZM137.624 129.507C137.525 129.701 137.284 130.03 136.927 130.425C136.027 131.423 134.989 131.674 134.064 130.839C133.098 129.966 133.168 128.822 134.153 127.731C134.426 127.43 134.672 127.2 134.902 127.049L137.624 129.507Z" fill="white"/>
<path d="M132.512 136.299L126.316 129.183L125.397 129.982L130.922 136.328L128.061 138.82L128.732 139.59L132.512 136.299Z" fill="white"/>
<path d="M126.683 141.298L121.473 133.431L120.387 134.15L120.514 139.691C120.557 140.922 120.623 142.188 120.81 143.307L120.767 143.319C120.192 142.273 119.585 141.331 118.742 140.059L116.524 136.709L115.567 137.343L120.777 145.21L121.793 144.537L121.655 138.802C121.608 137.489 121.534 136.312 121.39 135.233L121.421 135.229C122.046 136.326 122.703 137.368 123.531 138.617L125.726 141.932L126.683 141.298Z" fill="white"/>
<path d="M116.759 147.554L115.435 144.665C114.472 142.565 112.85 142.724 111.718 143.243C110.967 143.587 110.342 144.105 109.901 144.723L109.876 144.735L108.207 141.095L107.087 141.609L111.02 150.186L112.14 149.672L110.272 145.6C110.589 145.116 111.145 144.615 111.743 144.34C112.952 143.786 113.866 144.168 114.403 145.338L115.652 148.062L116.759 147.554Z" fill="white"/>
<path d="M100.977 149.407L104.486 148.341L105.353 151.194L101.643 152.322L101.94 153.3L106.816 151.818L104.073 142.79L98.9959 144.332L99.2929 145.31L103.204 144.122L104.193 147.377L100.684 148.443L100.977 149.407Z" fill="white"/>
<path d="M90.9105 147.205C91.3534 146.888 92.0726 146.609 92.804 146.484C95.0672 146.097 96.6282 147.335 97.0176 149.612C97.4352 152.055 96.2245 153.696 94.0442 154.069C93.2714 154.201 92.5945 154.147 92.1013 154.004L91.9791 155.033C92.3248 155.144 93.0986 155.268 94.2578 155.07C97.142 154.576 98.7779 152.266 98.2801 149.354C97.7586 146.304 95.5021 144.986 92.8801 145.434C91.7486 145.627 90.9031 145.999 90.4993 146.295L90.9105 147.205Z" fill="white"/>
<path d="M88.8159 155.637L88.4882 146.207L87.2849 146.249L87.4351 150.572L87.0434 150.586C85.4483 150.641 84.817 149.809 84.34 148.579C84.0624 147.846 83.7674 147.015 83.4092 146.384L82.094 146.429C82.543 147.254 82.8389 148.112 83.2223 149.066C83.7562 150.322 84.3909 151.252 85.9513 151.408L82.5337 155.856L84.0028 155.805L87.0895 151.509L87.4672 151.496L87.6126 155.679L88.8159 155.637Z" fill="white"/>
<path d="M74.9083 155.536C77.4114 155.826 79.4871 154.094 79.8328 151.118C80.1623 148.281 78.6469 146.16 76.1715 145.873C73.7796 145.595 71.6201 147.078 71.2454 150.304C70.9223 153.085 72.3495 155.239 74.9083 155.536ZM75.0786 154.555C73.0621 154.321 72.3148 152.261 72.5312 150.397C72.7784 148.269 74.0682 146.629 75.9873 146.852C77.8925 147.074 78.7688 148.993 78.5362 150.996C78.2972 153.054 77.0811 154.787 75.0786 154.555Z" fill="white"/>
<path d="M67.1258 154.152L69.4553 145.009L68.275 144.708L66.1978 152.861L62.5213 151.925L62.269 152.915L67.1258 154.152Z" fill="white"/>
<path d="M56.2568 150.985C58.5957 151.923 61.0535 150.797 62.1688 148.017C63.232 145.366 62.327 142.921 60.0141 141.994C57.7792 141.097 55.306 141.96 54.0969 144.975C53.0546 147.574 53.866 150.026 56.2568 150.985ZM56.6788 150.083C54.7947 149.328 54.6148 147.144 55.3132 145.403C56.1106 143.414 57.786 142.171 59.5791 142.89C61.3593 143.604 61.7005 145.687 60.95 147.558C60.1786 149.481 58.5499 150.834 56.6788 150.083Z" fill="white"/>
<path d="M44.0473 144.786L49.4859 137.074L48.4906 136.372L43.641 143.248L40.0601 140.723L44.9096 133.847L43.9143 133.145L38.4757 140.856L44.0473 144.786Z" fill="white"/>
<path d="M41.9893 131.637L41.1003 130.804L38.5163 133.563C38.3598 133.32 38.1241 133.081 37.8585 132.832C36.9899 132.018 35.9843 131.556 35.0454 131.616C34.363 131.649 33.7197 131.967 33.1359 132.59C32.5616 133.203 32.3175 133.914 32.3893 134.595C32.4535 135.346 32.9058 136.153 33.7845 136.976C34.4998 137.646 35.1192 138.111 35.6153 138.442L41.9893 131.637ZM35.3293 136.966C35.1377 136.863 34.8127 136.616 34.4244 136.252C33.4435 135.334 33.2113 134.291 34.0631 133.382C34.9532 132.432 36.0952 132.523 37.1681 133.528C37.4644 133.805 37.6905 134.056 37.8368 134.288L35.3293 136.966Z" fill="white"/>
<path d="M25.837 128.66C27.4 130.636 30.0923 130.881 32.4425 129.023C34.6828 127.252 35.1129 124.681 33.5673 122.726C32.0739 120.837 29.4988 120.357 26.9509 122.371C24.7545 124.108 24.2394 126.639 25.837 128.66ZM26.6515 128.087C25.3924 126.495 26.3221 124.51 27.7937 123.347C29.474 122.018 31.5459 121.772 32.7442 123.288C33.9338 124.792 33.1944 126.769 31.613 128.019C29.9876 129.304 27.9018 129.668 26.6515 128.087Z" fill="white"/>
<path d="M19.2389 119.426L19.9729 119.018C20.9558 120.554 22.9842 121.924 25.6878 120.42C28.2935 118.97 28.2376 116.71 27.3878 114.924L28.1585 114.495L27.5867 113.467L26.816 113.896C25.7447 112.201 23.7871 111.015 21.1936 112.459C18.6001 113.902 18.5147 116.224 19.4079 118.002L18.6739 118.411L19.2389 119.426ZM26.6225 115.334C27.1741 116.613 26.9958 118.25 25.0262 119.346C22.8853 120.537 21.4107 119.644 20.7504 118.601L26.6225 115.334ZM20.1854 117.586C19.5863 116.365 19.6776 114.744 21.794 113.566C23.837 112.43 25.2993 113.186 26.0575 114.318L20.1854 117.586Z" fill="white"/>
<path d="M15.6597 111.745L24.5431 108.563L24.104 107.337L18.6926 106.138C17.487 105.886 16.2418 105.648 15.1106 105.562L15.1097 105.518C16.263 105.209 17.3221 104.844 18.7588 104.33L22.5414 102.975L22.1543 101.894L13.271 105.076L13.6817 106.223L19.2843 107.458C20.57 107.726 21.7305 107.935 22.8136 108.052L22.8098 108.083C21.5953 108.429 20.426 108.818 19.0157 109.323L15.2726 110.664L15.6597 111.745Z" fill="white"/>
<path d="M11.8168 100.019L15.7224 99.2744C17.2076 98.9911 19.0222 98.7162 19.8928 99.3198C20.141 99.5005 20.4345 99.8436 20.5741 100.202L21.5079 99.8669C21.4056 99.3306 21.0832 98.8362 20.7976 98.5344C19.6683 97.3958 17.411 97.7408 15.4032 98.1238L12.5977 98.6589L12.0128 95.5922L20.2778 94.0157L20.047 92.8056L10.7781 94.5735L11.8168 100.019Z" fill="white"/>
<path d="M19.5199 88.9226C19.2616 88.7944 19.0626 88.7336 18.8203 88.6467C17.9097 88.3525 16.5129 88.151 15.8258 87.5381C15.4746 87.218 15.3287 86.7903 15.3014 86.203L15.26 85.3079L19.3436 85.1187L19.2872 83.902L9.98718 84.333C9.88983 84.9541 9.85879 85.7965 9.89573 86.5936C9.95081 87.7823 10.2453 88.6937 10.748 89.259C11.2062 89.7704 11.879 90.0755 12.7042 90.0373C13.9908 89.9777 14.7871 89.0158 14.9291 87.846L14.9711 87.844C15.0679 88.1198 15.2487 88.3917 15.4828 88.6051C16.2877 89.3387 17.6139 89.5295 18.7095 89.8851C19.0224 89.9828 19.3219 90.095 19.5801 90.2232L19.5199 88.9226ZM14.323 85.3513C14.348 85.5884 14.3661 85.98 14.3849 86.3856C14.4465 87.7142 13.8358 88.7515 12.7031 88.804C11.4025 88.8643 10.8936 87.8648 10.8379 86.6621C10.8126 86.1167 10.8644 85.7218 10.8966 85.5101L14.323 85.3513Z" fill="white"/>
<path d="M67.083 73.6029V95.1309H61.655V100.421H79.227V95.1309H73.661V68.2209H62.299V73.6029H67.083ZM104.85 68.2209H82.0345V74.2009H95.6045L84.1965 100.421H91.1425L104.85 69.1869V68.2209Z" fill="white"/>
</svg>
