<svg width="48" height="50" viewBox="0 0 48 50" fill="none" xmlns="http://www.w3.org/2000/svg">
<path d="M40.8457 8.05654V0H13.4427L7.1543 6.28838V8.05654H0.464844V13.9159H1.92969V9.52139H7.1543V32.4221H8.61914V7.32422H14.4785V1.46484H39.3809V33.8868H1.92969V15.3808H0.464844V41.211H20.3378V43.2354L19.1527 45.6055H13.7461C12.5345 45.6055 11.5488 46.5911 11.5488 47.8027V50H36.4512V47.8027C36.4512 46.5911 35.4654 45.6055 34.2539 45.6055H28.8473L27.6622 43.2354V41.211H40.211V39.7462H1.92969V35.3517H46.0703V39.7462H41.6759V41.211H47.5352V8.05654H40.8457ZM9.65488 5.85938L13.0136 2.50068V5.85938H9.65488ZM34.9863 47.8027V48.5352H13.0137V47.8027C13.0137 47.3988 13.3422 47.0703 13.7461 47.0703H34.2539C34.6578 47.0703 34.9863 47.3988 34.9863 47.8027ZM27.2096 45.6055H20.7904L21.8026 43.5812V41.211H26.1974V43.5812L27.2096 45.6055ZM40.8457 33.8868V9.52139H46.0703V33.8868H40.8457Z" fill="#354BB4"/>
<path d="M23.2676 36.8164H24.7324V38.2812H23.2676V36.8164Z" fill="#354BB4"/>
<path d="M17.6498 9.68223L16.6139 8.64648L14.0244 11.2359L12.4707 9.68232L11.4348 10.7181L14.0244 13.3075L17.6498 9.68223Z" fill="#354BB4"/>
<path d="M14.0244 22.0966L17.6498 18.4713L16.6139 17.4355L14.0244 20.025L12.4707 18.4713L11.4348 19.507L14.0244 22.0966Z" fill="#354BB4"/>
<path d="M19.8168 18.1309H34.5824V19.5957H19.8168V18.1309Z" fill="#354BB4"/>
<path d="M19.8168 21.0605H31.4476V22.5254H19.8168V21.0605Z" fill="#354BB4"/>
<path d="M19.8168 26.9199H34.5824V28.3848H19.8168V26.9199Z" fill="#354BB4"/>
<path d="M19.8168 29.8496H31.4476V31.3145H19.8168V29.8496Z" fill="#354BB4"/>
<path d="M19.8168 12.2715H31.4476V13.7363H19.8168V12.2715Z" fill="#354BB4"/>
<path d="M14.0244 30.8853L17.6498 27.26L16.6139 26.2241L14.0244 28.8137L12.4707 27.26L11.4348 28.2958L14.0244 30.8853Z" fill="#354BB4"/>
<path d="M19.8168 9.3418H34.5824V10.8066H19.8168V9.3418Z" fill="#354BB4"/>
<path d="M21.4741 4.39453H28.7983V5.85938H21.4741V4.39453Z" fill="#354BB4"/>
<path d="M43.1406 10.9863H44.6055V12.4512H43.1406V10.9863Z" fill="#354BB4"/>
<path d="M43.1406 13.916H44.6055V18.3105H43.1406V13.916Z" fill="#354BB4"/>
</svg>
