<svg width="130" height="52" viewBox="0 0 130 52" fill="none" xmlns="http://www.w3.org/2000/svg">
<g clip-path="url(#clip0_1911_5596)">
<path d="M3.86007 19.2716L4.44007 18.4578C4.48007 18.3983 4.54007 18.3784 4.60007 18.3784C4.66007 18.3784 4.72007 18.4181 4.76007 18.4777L5.22007 19.2914H7.14007V17.5647C7.14007 17.4655 7.22007 17.3861 7.32007 17.3861H7.56007V17.1479C7.56007 17.0884 7.60007 17.0288 7.64007 16.9891V16.6319C7.64007 16.5326 7.72007 16.4532 7.82007 16.4532C7.92007 16.4532 8.00007 16.5326 8.00007 16.6319V16.9494H8.36007V15.5403C8.36007 15.4807 8.38007 15.4212 8.44007 15.3815L8.78007 15.1433V12.2059C8.78007 12.1067 8.86007 12.0273 8.96007 12.0273H9.42007L10.4001 8.9708C10.4201 8.89141 10.5001 8.85172 10.5801 8.85172C10.6601 8.85172 10.7401 8.91126 10.7601 8.99065L11.6001 12.0471H12.0601C12.1601 12.0471 12.2401 12.1265 12.2401 12.2258V15.0441L12.5401 15.3418C12.5801 15.3815 12.6001 15.4212 12.6001 15.4807V16.9097H12.9201V16.612C12.9201 16.5128 13.0001 16.4334 13.1001 16.4334C13.2001 16.4334 13.2801 16.5128 13.2801 16.612V16.9296C13.3401 16.9693 13.3801 17.0288 13.3801 17.0884V17.3861H13.5801C13.6801 17.3861 13.7601 17.4655 13.7601 17.5647V19.0929C14.1201 18.8548 14.7801 18.4777 15.3801 18.438V18.1601C15.3801 18.0609 15.4601 17.9815 15.5601 17.9815H16.9801C17.0801 17.9815 17.1601 18.0609 17.1601 18.1601V18.4181H17.7401C17.7801 18.4181 17.8001 18.4181 17.8401 18.438L18.2201 18.6563L18.5601 18.299V17.5647C18.4601 17.4456 18.2401 17.1281 18.2801 16.6914C18.3401 16.0761 18.8601 15.4807 19.8001 14.8853V14.3296C19.8001 14.2303 19.8801 14.151 19.9801 14.151C20.0801 14.151 20.1601 14.2303 20.1601 14.3296V14.8853L20.5001 15.0639C20.6801 15.0044 21.2401 14.7464 21.3601 13.9128C21.3801 13.8334 21.4401 13.754 21.5401 13.754C21.6201 13.7342 21.7001 13.8135 21.7401 13.8929C21.7601 13.9525 21.7601 14.012 21.7601 14.0914C21.7801 14.2899 21.7801 14.528 22.2601 14.8258C22.8401 13.6548 24.0201 11.0548 24.1801 10.7174V9.52652C24.0801 9.42729 23.9001 9.22881 23.8601 8.9311C23.8001 8.47462 24.0601 7.93874 24.6201 7.36317V7.00591C24.6201 6.90668 24.7001 6.82729 24.8001 6.82729C24.9001 6.82729 24.9801 6.90668 24.9801 7.00591V7.34332C25.5401 7.95858 25.7801 8.51431 25.7201 8.99065C25.6801 9.26851 25.5401 9.44713 25.4401 9.52652V10.7968L27.9001 15.5006C28.2201 15.2227 28.9001 14.6273 29.0801 14.4685C29.2401 14.3296 29.4201 13.8731 29.5001 13.6151C29.5201 13.5357 29.6001 13.4761 29.6801 13.4761C29.7601 13.4761 29.8401 13.5357 29.8601 13.5952C29.9801 13.9723 30.1601 14.27 30.2601 14.3494L31.5401 12.841V12.4441C31.5401 12.3448 31.6201 12.2655 31.7201 12.2655C31.8201 12.2655 31.9001 12.3448 31.9001 12.4441V12.841L32.5201 13.6151C32.7201 13.7342 33.7801 14.4288 33.8801 15.3815C33.9401 15.8777 33.7401 16.3342 33.2801 16.7708V19.2517H34.9001L38.5001 12.4242C34.9601 6.96622 28.8001 3.354 21.8001 3.354C12.1401 3.354 4.10007 10.1815 2.32007 19.2517H3.86007V19.2716Z" fill="#3D4FA2"/>
<path d="M33.22 19.6485C33.12 19.6485 33.04 19.5691 33.04 19.4699V16.7309C33.04 16.6714 33.06 16.6317 33.1 16.592C33.5 16.2347 33.68 15.8378 33.64 15.4607C33.54 14.6073 32.44 13.9523 32.44 13.9523C32.42 13.9325 32.4 13.9325 32.38 13.9126L31.84 13.2378L30.62 14.6867C30.6 14.7065 30.56 14.7264 30.54 14.7462C30.22 14.8454 29.98 14.5279 29.82 14.2103C29.72 14.4286 29.6 14.647 29.46 14.7859C29.28 14.9447 28.58 15.5401 28.26 15.818C28.56 16.0958 29.12 16.6912 29.1 17.4256C29.08 17.9416 28.76 18.418 28.16 18.8149V19.4897C28.16 19.589 28.08 19.6683 27.98 19.6683C27.88 19.6683 27.8 19.589 27.8 19.4897V18.7355V18.7157C27.8 18.6958 27.8 18.6958 27.8 18.676C27.8 18.6561 27.8 18.6561 27.82 18.6363C27.82 18.6164 27.84 18.6164 27.84 18.6164L27.86 18.5966C27.86 18.5966 27.86 18.5767 27.88 18.5767C28.42 18.2393 28.72 17.8424 28.74 17.4256C28.78 16.6515 27.88 15.9767 27.88 15.9767C27.86 15.9569 27.84 15.937 27.82 15.9172L25.24 10.9554C25.22 10.9355 25.22 10.8958 25.22 10.876V9.46681C25.22 9.40727 25.26 9.34772 25.3 9.30803C25.3 9.30803 25.46 9.18895 25.5 8.95078C25.52 8.73246 25.46 8.35536 25 7.77979C24.98 7.77979 24.96 7.79963 24.94 7.79963C24.92 7.79963 24.9 7.79963 24.9 7.79963C24.42 8.33551 24.34 8.71261 24.36 8.93093C24.4 9.20879 24.6 9.32788 24.6 9.32788C24.66 9.36757 24.7 9.42711 24.7 9.48666V10.8561C24.7 10.876 24.7 10.9157 24.68 10.9355C24.66 10.9752 23.22 14.1508 22.64 15.2622C22.62 15.3019 22.58 15.3416 22.52 15.3615C22.48 15.3813 22.42 15.3615 22.38 15.3416C21.98 15.1431 21.78 14.9248 21.66 14.7462C21.32 15.4012 20.7 15.5401 20.66 15.5401C20.62 15.5401 20.58 15.5401 20.54 15.5202L20.12 15.3019C19.08 15.9569 18.82 16.4729 18.78 16.8103C18.74 17.1874 18.98 17.4256 19 17.4454C19.04 17.4851 19.06 17.5248 19.06 17.5844V18.4576C19.06 18.4973 19.04 18.5569 19 18.5767L18.52 19.0928C18.46 19.1523 18.36 19.1722 18.3 19.1325L17.82 18.8546H17.12C17.02 18.8546 16.94 18.7752 16.94 18.676V18.418H15.9V18.676C15.9 18.7355 15.88 18.7752 15.84 18.8149C15.8 18.8546 15.74 18.8546 15.7 18.8744C14.9 18.8348 13.84 19.6683 13.82 19.6683C13.76 19.708 13.68 19.7279 13.62 19.6882C13.56 19.6485 13.52 19.5889 13.52 19.5294V17.8225H13.32C13.22 17.8225 13.14 17.7431 13.14 17.6439V17.4057C13.12 17.3859 13.08 17.366 13.08 17.3462H12.54C12.44 17.3462 12.36 17.2668 12.36 17.1676V15.6195L12.06 15.3218C12.02 15.2821 12 15.2424 12 15.1828V12.4638H11.58C11.5 12.4638 11.42 12.4042 11.4 12.3248L10.68 9.72482L9.84001 12.305C9.82001 12.3844 9.74002 12.4241 9.66001 12.4241H9.24001V15.2622C9.24001 15.3218 9.22002 15.3813 9.16002 15.421L8.82002 15.6592V17.1477C8.82002 17.247 8.74001 17.3263 8.64001 17.3263H8.04001C8.04001 17.3462 8.02001 17.3462 8.00001 17.3462V17.5645C8.00001 17.6638 7.92002 17.7431 7.82002 17.7431H7.58001V19.4699C7.58001 19.5691 7.50001 19.6485 7.40001 19.6485H5.20001C5.14001 19.6485 5.08001 19.6088 5.04001 19.5493L4.68002 18.9141L4.22001 19.5691C4.18001 19.6088 4.12002 19.6485 4.06002 19.6485H2.44001C2.24001 20.7599 2.14001 21.9309 2.14001 23.1019C2.14001 33.9783 11.04 42.8103 22 42.8103C22.24 42.8103 22.5 42.8103 22.74 42.7905L34.82 19.6485H33.22Z" fill="#3D4FA2"/>
<path d="M49.8802 11.681V4.17868C49.9602 4.15883 50.0403 4.15883 50.1203 4.13899C50.2003 4.13899 50.2603 4.11914 50.3203 4.11914C50.4203 4.11914 50.5203 4.11914 50.6203 4.13899C50.7203 4.15883 50.8202 4.19853 50.9002 4.25807C50.9802 4.31761 51.0602 4.397 51.1202 4.49624C51.1802 4.59548 51.2002 4.75426 51.2002 4.91303V11.6611H49.8802V11.681ZM54.9402 11.7802C54.6802 11.7802 54.4602 11.7207 54.2802 11.6016C54.1002 11.4825 53.9602 11.3436 53.8602 11.1649L53.0402 9.75578C52.8202 9.37868 52.6002 9.06112 52.3602 8.80311C52.1402 8.54509 51.8602 8.36647 51.5602 8.28708V7.27486C51.7202 7.23517 51.8402 7.17563 51.9602 7.07639C52.0802 6.997 52.1802 6.89777 52.2802 6.77868C52.3802 6.6596 52.4802 6.52066 52.5802 6.36189C52.6802 6.20311 52.8002 6.02448 52.9402 5.84586L53.4602 5.11151C53.6402 4.83364 53.8202 4.61532 54.0402 4.4367C54.2602 4.25807 54.5002 4.15883 54.7802 4.15883C55.0002 4.15883 55.1802 4.21838 55.3402 4.31761C55.5002 4.41685 55.5602 4.59547 55.5602 4.83364C55.5602 4.93288 55.5602 4.99242 55.5402 5.01227C55.3002 5.01227 55.1002 5.07181 54.9402 5.21074C54.7802 5.34967 54.6402 5.50845 54.5202 5.68708L53.8802 6.6199C53.7402 6.85807 53.5802 7.07639 53.4002 7.27486C53.2202 7.47334 52.9802 7.63212 52.6802 7.71151C53.0002 7.81074 53.2802 7.96952 53.4802 8.18784C53.7002 8.40616 53.9002 8.68402 54.0802 9.00158L55.6602 11.6214C55.5002 11.7008 55.3602 11.7604 55.2002 11.7802C55.1402 11.7802 55.1002 11.8001 55.0602 11.8001C55.0202 11.7802 54.9802 11.7802 54.9402 11.7802Z" fill="#3D4FA2"/>
<path d="M63.0802 7.89025C63.0802 8.42613 63.0202 8.94216 62.8802 9.41849C62.7602 9.89483 62.5602 10.3116 62.2802 10.6887C62.0002 11.046 61.6602 11.3437 61.2202 11.5422C60.8002 11.7605 60.2802 11.8597 59.6802 11.8597C59.0802 11.8597 58.5602 11.7605 58.1402 11.5422C57.7202 11.3238 57.3802 11.046 57.1202 10.6689C56.8602 10.3116 56.6602 9.89483 56.5402 9.41849C56.4202 8.94216 56.3602 8.44597 56.3602 7.91009C56.3602 7.39406 56.4202 6.89788 56.5602 6.42154C56.7002 5.94521 56.9002 5.52842 57.1802 5.19101C57.4602 4.83376 57.8202 4.5559 58.2402 4.33757C58.6802 4.11925 59.1802 4.02002 59.7802 4.02002C60.3602 4.02002 60.8602 4.11926 61.2802 4.31773C61.7002 4.5162 62.0402 4.79406 62.3002 5.15132C62.5602 5.50857 62.7602 5.90551 62.8802 6.38185C63.0202 6.85819 63.0802 7.35437 63.0802 7.89025ZM61.7202 7.91009C61.7202 7.53299 61.6802 7.17574 61.6202 6.83834C61.5602 6.50093 61.4402 6.20322 61.3002 5.94521C61.1402 5.68719 60.9402 5.48872 60.7002 5.32994C60.4402 5.17116 60.1402 5.11162 59.7802 5.11162C59.4002 5.11162 59.0802 5.19101 58.8202 5.32994C58.5602 5.48872 58.3602 5.68719 58.2002 5.94521C58.0402 6.20322 57.9202 6.50093 57.8602 6.83834C57.8002 7.17574 57.7602 7.53299 57.7602 7.91009C57.7602 8.28719 57.8002 8.64444 57.8602 9.0017C57.9202 9.35895 58.0402 9.65666 58.2002 9.91467C58.3602 10.1727 58.5602 10.391 58.8202 10.5498C59.0802 10.7086 59.3802 10.788 59.7602 10.788C60.1202 10.788 60.4402 10.7086 60.7002 10.5498C60.9602 10.391 61.1602 10.1727 61.3202 9.91467C61.4802 9.65666 61.5802 9.3391 61.6602 9.0017C61.6802 8.64444 61.7202 8.28719 61.7202 7.91009Z" fill="#3D4FA2"/>
<path d="M66.2602 7.27469H69.4002V4.17851C69.4802 4.15866 69.5602 4.15866 69.6402 4.13882C69.7202 4.13882 69.8002 4.11897 69.8402 4.11897C69.9402 4.11897 70.0202 4.11897 70.1402 4.13882C70.2402 4.15866 70.3402 4.19836 70.4202 4.2579C70.5002 4.31744 70.5802 4.39683 70.6202 4.49607C70.6802 4.5953 70.7002 4.73424 70.7002 4.91286V11.661H69.4002V8.3266H66.2602V11.661H64.9402V4.15866C65.0202 4.13882 65.1002 4.13882 65.1802 4.11897C65.2602 4.11897 65.3202 4.09912 65.3802 4.09912C65.4802 4.09912 65.5802 4.09912 65.6802 4.11897C65.7802 4.13882 65.8802 4.17851 65.9602 4.23805C66.0402 4.29759 66.1202 4.37698 66.1802 4.47622C66.2402 4.57546 66.2602 4.71439 66.2602 4.89301V7.27469Z" fill="#3D4FA2"/>
<path d="M72.7603 4.15869H77.3002C77.3202 4.21823 77.3202 4.27778 77.3202 4.31747C77.3202 4.35717 77.3202 4.43655 77.3202 4.4961C77.3202 4.73426 77.2602 4.91289 77.1402 5.03197C77.0202 5.15106 76.8002 5.2106 76.4602 5.2106H74.0803V11.661H72.7603V4.15869Z" fill="#3D4FA2"/>
<path d="M83.7201 6.34187C83.7201 6.83805 83.6401 7.235 83.4801 7.5724C83.3201 7.90981 83.1001 8.16782 82.8201 8.3663C82.5401 8.56477 82.2201 8.7037 81.8601 8.80294C81.5001 8.88233 81.1001 8.94187 80.7001 8.94187H80.0601V11.7006H78.7201V4.19836C79.0401 4.15866 79.3601 4.13882 79.7001 4.11897C80.0401 4.09912 80.3401 4.09912 80.6401 4.09912C81.7201 4.09912 82.5201 4.27775 83.0001 4.65485C83.4801 5.03195 83.7201 5.58767 83.7201 6.34187ZM82.3601 6.40141C82.3601 6.16324 82.3201 5.94492 82.2401 5.78614C82.1601 5.62737 82.0401 5.48843 81.9001 5.36935C81.7601 5.27011 81.5801 5.19072 81.3801 5.13118C81.1801 5.09149 80.9601 5.07164 80.7401 5.07164C80.6201 5.07164 80.5001 5.07164 80.3801 5.09149C80.2601 5.09149 80.1401 5.11133 80.0201 5.13118V7.9495H80.4201C80.7401 7.9495 81.0201 7.92966 81.2601 7.87011C81.5001 7.83042 81.7001 7.73118 81.8601 7.63195C82.0201 7.51286 82.1401 7.35408 82.2401 7.17546C82.3201 6.95714 82.3601 6.69912 82.3601 6.40141Z" fill="#3D4FA2"/>
<path d="M86.6602 10.6091H89.2602C89.5802 10.6091 89.8002 10.6885 89.9202 10.8274C90.0402 10.9663 90.1002 11.1449 90.1002 11.3434C90.1002 11.403 90.1002 11.4625 90.1002 11.5022C90.1002 11.5419 90.1002 11.6014 90.0802 11.6808H85.3402V4.15869H89.9002C89.9202 4.21823 89.9202 4.27778 89.9202 4.31747C89.9202 4.35717 89.9202 4.43655 89.9202 4.4961C89.9202 4.73426 89.8602 4.91289 89.7402 5.03197C89.6202 5.15106 89.4002 5.2106 89.0602 5.2106H86.6402V7.23503H89.1002V8.30678H86.6402V10.6091H86.6602Z" fill="#3D4FA2"/>
<path d="M96.5602 11.2046C96.5202 11.2443 96.4403 11.3038 96.3403 11.3634C96.2403 11.4428 96.0802 11.5221 95.9202 11.5817C95.7402 11.6611 95.5402 11.7206 95.3002 11.7802C95.0602 11.8397 94.7802 11.8595 94.4602 11.8595C93.8602 11.8595 93.3402 11.7603 92.9002 11.5618C92.4602 11.3634 92.1002 11.1053 91.8202 10.7481C91.5402 10.4107 91.3202 9.9939 91.2002 9.51756C91.0602 9.04122 91.0002 8.52519 91.0002 7.94962C91.0002 7.37405 91.0602 6.85802 91.2002 6.38168C91.3402 5.90534 91.5602 5.48855 91.8402 5.1313C92.1202 4.77405 92.4802 4.49618 92.9202 4.29771C93.3602 4.09924 93.8602 4 94.4602 4C94.7602 4 95.0202 4.03969 95.2602 4.09924C95.5002 4.15878 95.7202 4.23817 95.9002 4.31756C96.0802 4.4168 96.2402 4.49618 96.3602 4.59542C96.4802 4.69466 96.5602 4.77405 96.6202 4.83359C96.6602 4.87328 96.6803 4.91298 96.6803 4.97252C96.7003 5.03206 96.7003 5.07176 96.7003 5.11145C96.7003 5.25038 96.6602 5.38931 96.5602 5.52824C96.4602 5.66718 96.3603 5.78626 96.2403 5.8855C96.1403 5.78626 96.0403 5.70687 95.9403 5.60764C95.8403 5.5084 95.7002 5.42901 95.5602 5.34962C95.4202 5.27023 95.2603 5.21069 95.0803 5.17099C94.9003 5.1313 94.7003 5.0916 94.4803 5.0916C94.0803 5.0916 93.7402 5.17099 93.4602 5.32977C93.1802 5.48855 92.9602 5.70687 92.8002 5.96488C92.6402 6.2229 92.5202 6.52061 92.4402 6.87786C92.3602 7.21527 92.3402 7.55267 92.3402 7.90992C92.3402 8.26718 92.3802 8.62443 92.4402 8.96183C92.5202 9.29924 92.6402 9.59695 92.8002 9.87481C92.9802 10.1328 93.2003 10.3511 93.4803 10.5099C93.7603 10.6687 94.1202 10.7481 94.5403 10.7481C94.7803 10.7481 94.9802 10.7084 95.1602 10.6489C95.3402 10.5893 95.5003 10.5298 95.6403 10.4504C95.7803 10.371 95.9002 10.2916 96.0002 10.2122C96.1002 10.1328 96.1803 10.0534 96.2403 9.99389C96.2803 10.0336 96.3403 10.0931 96.4002 10.1527C96.4602 10.2122 96.5002 10.2916 96.5602 10.371C96.6002 10.4504 96.6403 10.5099 96.6803 10.5893C96.7203 10.6687 96.7202 10.7282 96.7202 10.7679C96.7202 10.8473 96.7002 10.9267 96.6602 10.9863C96.6802 11.0458 96.6202 11.1252 96.5602 11.2046Z" fill="#3D4FA2"/>
<path d="M103.5 11.2046C103.46 11.2443 103.38 11.3038 103.28 11.3634C103.18 11.4428 103.02 11.5221 102.86 11.5817C102.68 11.6611 102.48 11.7206 102.24 11.7802C102 11.8397 101.72 11.8595 101.4 11.8595C100.8 11.8595 100.28 11.7603 99.8402 11.5618C99.4002 11.3634 99.0402 11.1053 98.7602 10.7481C98.4802 10.4107 98.2602 9.9939 98.1402 9.51756C98.0002 9.04122 97.9402 8.52519 97.9402 7.94962C97.9402 7.37405 98.0002 6.85802 98.1402 6.38168C98.2802 5.90534 98.5002 5.48855 98.7802 5.1313C99.0602 4.77405 99.4202 4.49618 99.8602 4.29771C100.3 4.09924 100.8 4 101.4 4C101.7 4 101.96 4.03969 102.2 4.09924C102.44 4.15878 102.66 4.23817 102.84 4.31756C103.02 4.4168 103.18 4.49618 103.3 4.59542C103.42 4.69466 103.5 4.77405 103.56 4.83359C103.6 4.87328 103.62 4.91298 103.62 4.97252C103.64 5.03206 103.64 5.07176 103.64 5.11145C103.64 5.25038 103.6 5.38931 103.5 5.52824C103.4 5.66718 103.3 5.78626 103.18 5.8855C103.08 5.78626 102.98 5.70687 102.88 5.60764C102.78 5.5084 102.64 5.42901 102.5 5.34962C102.36 5.27023 102.2 5.21069 102.02 5.17099C101.84 5.1313 101.64 5.0916 101.42 5.0916C101.02 5.0916 100.68 5.17099 100.4 5.32977C100.12 5.48855 99.9002 5.70687 99.7402 5.96488C99.5802 6.2229 99.4602 6.52061 99.3802 6.87786C99.3002 7.21527 99.2802 7.55267 99.2802 7.90992C99.2802 8.26718 99.3202 8.62443 99.3802 8.96183C99.4602 9.29924 99.5802 9.59695 99.7402 9.87481C99.9202 10.1328 100.14 10.3511 100.42 10.5099C100.7 10.6687 101.06 10.7481 101.48 10.7481C101.72 10.7481 101.92 10.7084 102.1 10.6489C102.28 10.5893 102.44 10.5298 102.58 10.4504C102.72 10.371 102.84 10.2916 102.94 10.2122C103.04 10.1328 103.12 10.0534 103.18 9.99389C103.22 10.0336 103.28 10.0931 103.34 10.1527C103.4 10.2122 103.44 10.2916 103.5 10.371C103.54 10.4504 103.58 10.5099 103.62 10.5893C103.66 10.6687 103.66 10.7282 103.66 10.7679C103.66 10.8473 103.64 10.9267 103.6 10.9863C103.62 11.0458 103.56 11.1252 103.5 11.2046Z" fill="#3D4FA2"/>
<path d="M50.9602 14.4595C51.1802 14.4595 51.3402 14.4992 51.4602 14.5984C51.5802 14.6976 51.6802 14.8366 51.7402 14.9953L53.6002 19.2228L55.4802 15.035C55.5802 14.8167 55.7002 14.6778 55.8402 14.5786C55.9802 14.4992 56.1402 14.4595 56.3202 14.4595C56.4602 14.4595 56.5802 14.4595 56.7202 14.4793C56.8402 14.4992 56.9402 14.519 57.0002 14.5389L57.5402 22.0015H56.2802L55.9002 16.6427L54.1602 20.374H53.0002L51.3402 16.8213L50.9802 22.0015H49.7202L50.2802 14.5389C50.3402 14.519 50.4402 14.4992 50.5602 14.4793C50.6802 14.4793 50.8202 14.4595 50.9602 14.4595Z" fill="#3D4FA2"/>
<path d="M65.7201 18.2306C65.7201 18.7665 65.6601 19.2825 65.5201 19.7588C65.4001 20.2352 65.2001 20.652 64.9201 21.029C64.6401 21.3863 64.3001 21.684 63.8601 21.8825C63.4401 22.1008 62.9201 22.2 62.3201 22.2C61.7201 22.2 61.2001 22.1008 60.7801 21.8825C60.3601 21.6642 60.0201 21.3863 59.7601 21.0092C59.5001 20.652 59.3001 20.2352 59.1801 19.7588C59.0601 19.2825 59.0001 18.7863 59.0001 18.2504C59.0001 17.7344 59.0601 17.2382 59.2001 16.7619C59.3401 16.2855 59.5401 15.8687 59.8201 15.5313C60.1001 15.1741 60.4601 14.8962 60.8801 14.6779C61.3201 14.4596 61.8201 14.3604 62.4201 14.3604C63.0001 14.3604 63.5001 14.4596 63.9201 14.6581C64.3401 14.8565 64.6801 15.1344 64.9401 15.4916C65.2001 15.8489 65.4001 16.2458 65.5201 16.7222C65.6601 17.1787 65.7201 17.6947 65.7201 18.2306ZM64.3601 18.2504C64.3601 17.8733 64.3201 17.5161 64.2601 17.1787C64.2001 16.8413 64.0801 16.5436 63.9401 16.2855C63.7801 16.0275 63.5801 15.8291 63.3401 15.6703C63.0801 15.5115 62.7801 15.452 62.4201 15.452C62.0401 15.452 61.7201 15.5313 61.4601 15.6703C61.2001 15.8291 61.0001 16.0275 60.8401 16.2855C60.6801 16.5436 60.5601 16.8413 60.5001 17.1787C60.4401 17.5161 60.4001 17.8733 60.4001 18.2504C60.4001 18.6275 60.4401 18.9848 60.5001 19.342C60.5601 19.6993 60.6801 19.997 60.8401 20.255C61.0001 20.513 61.2001 20.7313 61.4601 20.8901C61.7201 21.0489 62.0201 21.1283 62.4001 21.1283C62.7601 21.1283 63.0801 21.0489 63.3401 20.8901C63.6001 20.7313 63.8001 20.513 63.9601 20.255C64.1201 19.997 64.2201 19.6794 64.3001 19.342C64.3201 18.9848 64.3601 18.6275 64.3601 18.2504Z" fill="#3D4FA2"/>
<path d="M72.9403 21.5254C72.9003 21.5651 72.8203 21.6246 72.7203 21.6842C72.6203 21.7635 72.4603 21.8429 72.3003 21.9025C72.1203 21.9819 71.9203 22.0414 71.6803 22.101C71.4403 22.1605 71.1603 22.1803 70.8403 22.1803C70.2403 22.1803 69.7203 22.0811 69.2803 21.8826C68.8403 21.6842 68.4803 21.4261 68.2003 21.0689C67.9203 20.7315 67.7002 20.3147 67.5802 19.8384C67.4402 19.362 67.3802 18.846 67.3802 18.2704C67.3802 17.6948 67.4402 17.1788 67.5802 16.7025C67.7202 16.2261 67.9403 15.8094 68.2203 15.4521C68.5003 15.0948 68.8603 14.817 69.3003 14.6185C69.7403 14.42 70.2403 14.3208 70.8403 14.3208C71.1403 14.3208 71.4003 14.3605 71.6403 14.42C71.8803 14.4796 72.1003 14.559 72.2803 14.6384C72.4603 14.7376 72.6203 14.817 72.7403 14.9162C72.8603 15.0155 72.9403 15.0948 73.0003 15.1544C73.0403 15.1941 73.0603 15.2338 73.0603 15.2933C73.0803 15.3529 73.0803 15.3926 73.0803 15.4323C73.0803 15.5712 73.0403 15.7101 72.9403 15.849C72.8403 15.988 72.7403 16.1071 72.6203 16.2063C72.5203 16.1071 72.4203 16.0277 72.3203 15.9284C72.2203 15.8292 72.0803 15.7498 71.9403 15.6704C71.8003 15.591 71.6403 15.5315 71.4603 15.4918C71.2803 15.4521 71.0803 15.4124 70.8603 15.4124C70.4603 15.4124 70.1203 15.4918 69.8403 15.6506C69.5603 15.8094 69.3403 16.0277 69.1803 16.2857C69.0203 16.5437 68.9003 16.8414 68.8203 17.1987C68.7403 17.5361 68.7203 17.8735 68.7203 18.2307C68.7203 18.588 68.7603 18.9452 68.8203 19.2826C68.9003 19.62 69.0203 19.9177 69.1803 20.1956C69.3603 20.4536 69.5803 20.6719 69.8603 20.8307C70.1403 20.9895 70.5003 21.0689 70.9203 21.0689C71.1603 21.0689 71.3603 21.0292 71.5403 20.9697C71.7203 20.9101 71.8803 20.8506 72.0203 20.7712C72.1603 20.6918 72.2803 20.6124 72.3803 20.533C72.4803 20.4536 72.5603 20.3742 72.6203 20.3147C72.6603 20.3544 72.7203 20.4139 72.7803 20.4735C72.8403 20.533 72.8803 20.6124 72.9403 20.6918C72.9803 20.7712 73.0203 20.8307 73.0603 20.9101C73.1003 20.9895 73.1003 21.049 73.1003 21.0887C73.1003 21.1681 73.0803 21.2475 73.0403 21.3071C73.0603 21.3865 73.0203 21.4658 72.9403 21.5254Z" fill="#3D4FA2"/>
<path d="M74.8202 22.0213V14.519C74.9002 14.4992 74.9802 14.4992 75.0602 14.4793C75.1402 14.4793 75.2002 14.4595 75.2602 14.4595C75.3602 14.4595 75.4602 14.4595 75.5602 14.4793C75.6602 14.4992 75.7602 14.5389 75.8402 14.5984C75.9202 14.6579 76.0002 14.7373 76.0602 14.8366C76.1202 14.9358 76.1402 15.0946 76.1402 15.2534V22.0015H74.8202V22.0213ZM79.8802 22.1205C79.6202 22.1205 79.4002 22.061 79.2202 21.9419C79.0402 21.8228 78.9002 21.6839 78.8002 21.5053L77.9802 20.0961C77.7602 19.719 77.5402 19.4015 77.3002 19.1434C77.0602 18.8854 76.8002 18.7068 76.5002 18.6274V17.6152C76.6602 17.5755 76.7802 17.516 76.9002 17.4167C77.0202 17.3373 77.1202 17.2381 77.2202 17.119C77.3202 16.9999 77.4202 16.861 77.5202 16.7022C77.6202 16.5434 77.7402 16.3648 77.8802 16.1862L78.4002 15.4518C78.5802 15.174 78.7602 14.9557 78.9802 14.777C79.2002 14.5984 79.4402 14.4992 79.7202 14.4992C79.9402 14.4992 80.1202 14.5587 80.2802 14.6579C80.4402 14.7572 80.5002 14.9358 80.5002 15.174C80.5002 15.2732 80.5002 15.3328 80.4802 15.3526C80.2402 15.3526 80.0402 15.4121 79.8802 15.5511C79.7202 15.69 79.5802 15.8488 79.4602 16.0274L78.8202 16.9602C78.6802 17.1984 78.5202 17.4167 78.3402 17.6152C78.1602 17.8137 77.9202 17.9724 77.6202 18.0518C77.9402 18.1511 78.2202 18.3099 78.4202 18.5282C78.6402 18.7465 78.8402 19.0244 79.0202 19.3419L80.6002 21.9618C80.4402 22.0412 80.3002 22.1007 80.1402 22.1205C80.0802 22.1205 80.0402 22.1404 80.0002 22.1404C79.9802 22.1205 79.9202 22.1205 79.8802 22.1205Z" fill="#3D4FA2"/>
<path d="M88.0402 18.2306C88.0402 18.7665 87.9802 19.2825 87.8402 19.7588C87.7202 20.2352 87.5202 20.652 87.2402 21.029C86.9602 21.3863 86.6202 21.684 86.1802 21.8825C85.7602 22.1008 85.2402 22.2 84.6402 22.2C84.0402 22.2 83.5202 22.1008 83.1002 21.8825C82.6802 21.6642 82.3402 21.3863 82.0802 21.0092C81.8202 20.652 81.6202 20.2352 81.5002 19.7588C81.3802 19.2825 81.3202 18.7863 81.3202 18.2504C81.3202 17.7344 81.3802 17.2382 81.5202 16.7619C81.6602 16.2855 81.8602 15.8687 82.1402 15.5313C82.4202 15.1741 82.7802 14.8962 83.2002 14.6779C83.6402 14.4596 84.1402 14.3604 84.7402 14.3604C85.3202 14.3604 85.8202 14.4596 86.2402 14.6581C86.6602 14.8565 87.0002 15.1344 87.2602 15.4916C87.5202 15.8489 87.7202 16.2458 87.8402 16.7222C87.9802 17.1787 88.0402 17.6947 88.0402 18.2306ZM86.6602 18.2504C86.6602 17.8733 86.6202 17.5161 86.5602 17.1787C86.5002 16.8413 86.3802 16.5436 86.2402 16.2855C86.0802 16.0275 85.8802 15.8291 85.6402 15.6703C85.3802 15.5115 85.0802 15.452 84.7202 15.452C84.3402 15.452 84.0202 15.5313 83.7602 15.6703C83.5002 15.8291 83.3002 16.0275 83.1402 16.2855C82.9802 16.5436 82.8602 16.8413 82.8002 17.1787C82.7402 17.5161 82.7002 17.8733 82.7002 18.2504C82.7002 18.6275 82.7402 18.9848 82.8002 19.342C82.8602 19.6993 82.9802 19.997 83.1402 20.255C83.3002 20.513 83.5002 20.7313 83.7602 20.8901C84.0202 21.0489 84.3202 21.1283 84.7002 21.1283C85.0602 21.1283 85.3802 21.0489 85.6402 20.8901C85.9002 20.7313 86.1002 20.513 86.2602 20.255C86.4202 19.997 86.5202 19.6794 86.6002 19.342C86.6402 18.9848 86.6602 18.6275 86.6602 18.2504Z" fill="#3D4FA2"/>
<path d="M95.1602 19.8379C95.1602 20.2547 95.0802 20.612 94.9402 20.8898C94.8002 21.1677 94.5802 21.386 94.3202 21.5646C94.0402 21.7234 93.7202 21.8425 93.3402 21.9219C92.9602 21.9814 92.5402 22.0211 92.0602 22.0211H89.9202V14.5387C90.2802 14.499 90.6202 14.4791 90.9202 14.4593C91.2202 14.4395 91.5602 14.4395 91.9002 14.4395C92.4602 14.4395 92.9202 14.4791 93.2802 14.5585C93.6602 14.6379 93.9602 14.757 94.1802 14.9356C94.4002 15.0944 94.5602 15.2929 94.6602 15.5311C94.7602 15.7692 94.8002 16.0272 94.8002 16.3249C94.8002 16.583 94.7602 16.8013 94.7002 16.9998C94.6202 17.1982 94.5402 17.357 94.4202 17.4959C94.3002 17.6349 94.1802 17.754 94.0602 17.8333C93.9202 17.9326 93.8002 17.9921 93.6802 18.0318C93.8202 18.0715 93.9602 18.1311 94.1402 18.1906C94.3002 18.27 94.4602 18.3692 94.6202 18.5082C94.7802 18.6471 94.9002 18.8257 95.0002 19.0242C95.1002 19.2425 95.1602 19.5204 95.1602 19.8379ZM93.4602 16.3845C93.4602 16.186 93.4202 16.0272 93.3402 15.8883C93.2602 15.7692 93.1602 15.67 93.0202 15.5906C92.8802 15.5112 92.7202 15.4715 92.5202 15.4318C92.3202 15.3921 92.1202 15.3921 91.8802 15.3921C91.7202 15.3921 91.5802 15.3921 91.4802 15.412C91.3802 15.412 91.2802 15.4318 91.2202 15.4318V17.6746H92.1002C92.5002 17.6746 92.8402 17.5555 93.0802 17.3372C93.3402 17.1188 93.4602 16.8013 93.4602 16.3845ZM91.2402 21.0288H91.9002C92.2002 21.0288 92.4602 21.0089 92.7002 20.9891C92.9402 20.9494 93.1402 20.8898 93.3002 20.8104C93.4602 20.7112 93.6002 20.5921 93.6802 20.4333C93.7802 20.2746 93.8202 20.0562 93.8202 19.7982C93.8202 19.5799 93.7802 19.3814 93.7002 19.2227C93.6202 19.0639 93.5002 18.9448 93.3402 18.8654C93.2002 18.7662 93.0202 18.7066 92.8202 18.6669C92.6202 18.6272 92.4002 18.6074 92.1802 18.6074H91.2602V21.0288H91.2402Z" fill="#3D4FA2"/>
<path d="M102.24 21.5254C102.2 21.5651 102.12 21.6246 102.02 21.6842C101.92 21.7635 101.76 21.8429 101.6 21.9025C101.42 21.9819 101.22 22.0414 100.98 22.101C100.74 22.1605 100.46 22.1803 100.14 22.1803C99.5403 22.1803 99.0203 22.0811 98.5803 21.8826C98.1403 21.6842 97.7803 21.4261 97.5003 21.0689C97.2203 20.7315 97.0003 20.3147 96.8803 19.8384C96.7403 19.362 96.6803 18.846 96.6803 18.2704C96.6803 17.6948 96.7403 17.1788 96.8803 16.7025C97.0203 16.2261 97.2403 15.8094 97.5203 15.4521C97.8003 15.0948 98.1603 14.817 98.6003 14.6185C99.0403 14.42 99.5403 14.3208 100.14 14.3208C100.44 14.3208 100.7 14.3605 100.94 14.42C101.18 14.4796 101.4 14.559 101.58 14.6384C101.76 14.7376 101.92 14.817 102.04 14.9162C102.16 15.0155 102.24 15.0948 102.3 15.1544C102.34 15.1941 102.36 15.2338 102.36 15.2933C102.38 15.3529 102.38 15.3926 102.38 15.4323C102.38 15.5712 102.34 15.7101 102.24 15.849C102.14 15.988 102.04 16.1071 101.92 16.2063C101.82 16.1071 101.72 16.0277 101.62 15.9284C101.52 15.8292 101.38 15.7498 101.24 15.6704C101.1 15.591 100.94 15.5315 100.76 15.4918C100.58 15.4521 100.38 15.4124 100.16 15.4124C99.7603 15.4124 99.4203 15.4918 99.1403 15.6506C98.8603 15.8094 98.6403 16.0277 98.4803 16.2857C98.3203 16.5437 98.2003 16.8414 98.1203 17.1987C98.0403 17.5361 98.0203 17.8735 98.0203 18.2307C98.0203 18.588 98.0603 18.9452 98.1203 19.2826C98.2003 19.62 98.3203 19.9177 98.4803 20.1956C98.6603 20.4536 98.8803 20.6719 99.1603 20.8307C99.4403 20.9895 99.8003 21.0689 100.22 21.0689C100.46 21.0689 100.66 21.0292 100.84 20.9697C101.02 20.9101 101.18 20.8506 101.32 20.7712C101.46 20.6918 101.58 20.6124 101.68 20.533C101.78 20.4536 101.86 20.3742 101.92 20.3147C101.96 20.3544 102.02 20.4139 102.08 20.4735C102.14 20.533 102.18 20.6124 102.24 20.6918C102.28 20.7712 102.32 20.8307 102.36 20.9101C102.4 20.9895 102.4 21.049 102.4 21.0887C102.4 21.1681 102.38 21.2475 102.34 21.3071C102.36 21.3865 102.3 21.4658 102.24 21.5254Z" fill="#3D4FA2"/>
<path d="M104.12 22.0213V14.519C104.2 14.4992 104.28 14.4992 104.36 14.4793C104.44 14.4793 104.5 14.4595 104.56 14.4595C104.66 14.4595 104.76 14.4595 104.86 14.4793C104.96 14.4992 105.06 14.5389 105.14 14.5984C105.22 14.6579 105.3 14.7373 105.36 14.8366C105.42 14.9358 105.44 15.0946 105.44 15.2534V22.0015H104.12V22.0213ZM109.16 22.1205C108.9 22.1205 108.68 22.061 108.5 21.9419C108.32 21.8228 108.18 21.6839 108.08 21.5053L107.26 20.0961C107.04 19.719 106.82 19.4015 106.58 19.1434C106.34 18.8854 106.08 18.7068 105.78 18.6274V17.6152C105.94 17.5755 106.06 17.516 106.18 17.4167C106.3 17.3373 106.4 17.2381 106.5 17.119C106.6 16.9999 106.7 16.861 106.8 16.7022C106.9 16.5434 107.02 16.3648 107.16 16.1862L107.68 15.4518C107.86 15.174 108.04 14.9557 108.26 14.777C108.48 14.5984 108.72 14.4992 109 14.4992C109.22 14.4992 109.4 14.5587 109.56 14.6579C109.72 14.7572 109.78 14.9358 109.78 15.174C109.78 15.2732 109.78 15.3328 109.76 15.3526C109.52 15.3526 109.32 15.4121 109.16 15.5511C109 15.69 108.86 15.8488 108.74 16.0274L108.1 16.9602C107.96 17.1984 107.8 17.4167 107.62 17.6152C107.44 17.8137 107.2 17.9724 106.9 18.0518C107.22 18.1511 107.5 18.3099 107.7 18.5282C107.92 18.7465 108.12 19.0244 108.3 19.3419L109.88 21.9618C109.72 22.0412 109.58 22.1007 109.42 22.1205C109.36 22.1205 109.32 22.1404 109.28 22.1404C109.26 22.1205 109.22 22.1205 109.16 22.1205Z" fill="#3D4FA2"/>
<path d="M111.34 14.499C111.42 14.4791 111.48 14.4791 111.54 14.4593C111.6 14.4593 111.66 14.4395 111.72 14.4395C111.82 14.4395 111.9 14.4395 112.02 14.4593C112.12 14.4791 112.22 14.5188 112.3 14.5784C112.38 14.6379 112.46 14.7173 112.52 14.8166C112.58 14.9158 112.6 15.0746 112.6 15.2333V19.957L115.82 14.8761C115.92 14.7173 116.04 14.5982 116.14 14.5387C116.24 14.4593 116.4 14.4395 116.6 14.4395C116.82 14.4395 117 14.4593 117.16 14.499V22.0013H115.92V16.6425L112.48 22.0013H111.36V14.499H111.34Z" fill="#3D4FA2"/>
<path d="M121.62 19.3421L120.04 22.0215H118.6L120.86 18.2703L118.82 14.678C118.94 14.6184 119.08 14.5787 119.22 14.539C119.36 14.4993 119.5 14.4795 119.64 14.4795C120 14.4795 120.28 14.6581 120.48 15.0154L121.68 17.2184L122.8 15.3329C122.9 15.1741 122.98 15.0352 123.08 14.9161C123.16 14.797 123.24 14.7177 123.32 14.6581C123.4 14.5986 123.48 14.5589 123.58 14.5192C123.68 14.4993 123.78 14.4795 123.9 14.4795C124.04 14.4795 124.16 14.4993 124.26 14.539C124.36 14.5787 124.48 14.6184 124.58 14.678L122.44 18.2306L124.7 22.0215C124.42 22.1207 124.18 22.1604 123.96 22.1604C123.7 22.1604 123.5 22.1207 123.36 22.0215C123.22 21.9222 123.08 21.7635 122.94 21.5451L121.62 19.3421Z" fill="#3D4FA2"/>
<path d="M52.3202 29.6624L50.7402 32.3418H49.3002L51.5602 28.5906L49.5202 24.9983C49.6402 24.9387 49.7802 24.899 49.9202 24.8594C50.0602 24.8197 50.2002 24.7998 50.3402 24.7998C50.7002 24.7998 50.9802 24.9784 51.1802 25.3357L52.3802 27.5387L53.5002 25.6532C53.6002 25.4945 53.6802 25.3555 53.7802 25.2364C53.8602 25.1174 53.9402 25.038 54.0202 24.9784C54.1002 24.9189 54.1802 24.8792 54.2802 24.8395C54.3802 24.8197 54.4802 24.7998 54.6002 24.7998C54.7402 24.7998 54.8602 24.8197 54.9602 24.8594C55.0602 24.899 55.1802 24.9387 55.2802 24.9983L53.1402 28.551L55.4002 32.3418C55.1202 32.441 54.8802 32.4807 54.6602 32.4807C54.4002 32.4807 54.2002 32.441 54.0602 32.3418C53.9202 32.2425 53.7802 32.0838 53.6402 31.8655L52.3202 29.6624Z" fill="#3D4FA2"/>
<path d="M56.8401 24.8398C56.9201 24.82 56.9801 24.82 57.0401 24.8001C57.1001 24.8001 57.1601 24.7803 57.2201 24.7803C57.3201 24.7803 57.4001 24.7803 57.5201 24.8001C57.6201 24.82 57.7201 24.8597 57.8001 24.9192C57.8801 24.9787 57.9601 25.0581 58.0201 25.1574C58.0801 25.2566 58.1001 25.4154 58.1001 25.5742V30.2978L61.3201 25.2169C61.4201 25.0581 61.5401 24.9391 61.6401 24.8795C61.7401 24.8001 61.9001 24.7803 62.1001 24.7803C62.3201 24.7803 62.5001 24.8001 62.6601 24.8398V32.3421H61.4001V26.9833L57.9601 32.3421H56.8401V24.8398Z" fill="#3D4FA2"/>
<path d="M69.7401 27.0032C69.7401 27.4994 69.6601 27.8963 69.5001 28.2337C69.3401 28.5711 69.1201 28.8291 68.8401 29.0276C68.5601 29.2261 68.2401 29.365 67.8801 29.4642C67.5201 29.5436 67.1201 29.6032 66.7201 29.6032H66.0801V32.362H64.7401V24.8795C65.0601 24.8398 65.3801 24.82 65.7201 24.8001C66.0601 24.7803 66.3601 24.7803 66.6601 24.7803C67.7401 24.7803 68.5401 24.9589 69.0201 25.336C69.5001 25.6932 69.7401 26.2688 69.7401 27.0032ZM68.3801 27.0826C68.3801 26.8444 68.3401 26.6261 68.2601 26.4673C68.1801 26.3085 68.0601 26.1696 67.9201 26.0505C67.7801 25.9513 67.6001 25.8719 67.4001 25.8123C67.2001 25.7726 66.9801 25.7528 66.7601 25.7528C66.6401 25.7528 66.5201 25.7528 66.4001 25.7726C66.2801 25.7726 66.1601 25.7925 66.0401 25.8123V28.6108H66.4401C66.7601 28.6108 67.0401 28.591 67.2801 28.5314C67.5201 28.4917 67.7201 28.3925 67.8801 28.2932C68.0401 28.1742 68.1601 28.0154 68.2601 27.8368C68.3401 27.6184 68.3801 27.3803 68.3801 27.0826Z" fill="#3D4FA2"/>
<path d="M72.0202 32.5403C71.7002 32.5403 71.4202 32.5006 71.1802 32.4013C70.9402 32.3021 70.8202 32.1632 70.8202 31.9448C70.8202 31.8456 70.8402 31.7265 70.9002 31.5876C70.9602 31.4487 71.0202 31.3097 71.1002 31.1906C71.1802 31.2502 71.2802 31.3097 71.4202 31.3693C71.5402 31.4288 71.7002 31.4487 71.8602 31.4487C72.1202 31.4487 72.3202 31.3693 72.4802 31.1906C72.6202 31.012 72.7802 30.754 72.9202 30.4166L73.1602 29.841L70.6002 24.9983C70.7202 24.9387 70.8602 24.899 70.9802 24.8594C71.1002 24.8197 71.2402 24.7998 71.4002 24.7998C71.7602 24.7998 72.0402 24.9784 72.2202 25.3357L73.8202 28.551L75.0602 25.4548C75.1602 25.2166 75.2802 25.0578 75.4202 24.9586C75.5602 24.8594 75.7402 24.8197 75.9602 24.8197C76.1002 24.8197 76.2202 24.8395 76.3202 24.8792C76.4202 24.9189 76.5402 24.9586 76.6602 25.0181L74.1002 30.7937C74.0002 31.0319 73.8802 31.2502 73.7602 31.4685C73.6402 31.6868 73.5002 31.8654 73.3402 32.0441C73.1802 32.2029 73.0002 32.3418 72.7802 32.441C72.5802 32.5006 72.3202 32.5403 72.0202 32.5403Z" fill="#3D4FA2"/>
<path d="M83.0201 27.0032C83.0201 27.4994 82.9401 27.8963 82.7801 28.2337C82.6201 28.5711 82.4001 28.8291 82.1201 29.0276C81.8401 29.2261 81.5201 29.365 81.1601 29.4642C80.8001 29.5436 80.4001 29.6032 80.0001 29.6032H79.3601V32.362H78.0001V24.8795C78.3201 24.8398 78.6401 24.82 78.9801 24.8001C79.3201 24.7803 79.6201 24.7803 79.9201 24.7803C81.0001 24.7803 81.8001 24.9589 82.2801 25.336C82.7801 25.6932 83.0201 26.2688 83.0201 27.0032ZM81.6601 27.0826C81.6601 26.8444 81.6201 26.6261 81.5401 26.4673C81.4601 26.3085 81.3401 26.1696 81.2001 26.0505C81.0601 25.9513 80.8801 25.8719 80.6801 25.8123C80.4801 25.7726 80.2601 25.7528 80.0401 25.7528C79.9201 25.7528 79.8001 25.7528 79.6801 25.7726C79.5601 25.7726 79.4401 25.7925 79.3201 25.8123V28.6108H79.7201C80.0401 28.6108 80.3201 28.591 80.5601 28.5314C80.8001 28.4917 81.0001 28.3925 81.1601 28.2932C81.3201 28.1742 81.4401 28.0154 81.5401 27.8368C81.6201 27.6184 81.6601 27.3803 81.6601 27.0826Z" fill="#3D4FA2"/>
<path d="M84.6002 24.8398H89.1402C89.1602 24.8994 89.1602 24.9589 89.1602 24.9986C89.1602 25.0383 89.1602 25.1177 89.1602 25.1773C89.1602 25.4154 89.1002 25.594 88.9802 25.7131C88.8602 25.8322 88.6402 25.8917 88.3002 25.8917H85.9202V32.3421H84.6002V24.8398Z" fill="#3D4FA2"/>
<path d="M96.3401 28.5709C96.3401 29.1068 96.2801 29.6228 96.1401 30.0992C96.0201 30.5755 95.8201 30.9923 95.5401 31.3694C95.2601 31.7266 94.9201 32.0244 94.4801 32.2228C94.0601 32.4412 93.5401 32.5404 92.9401 32.5404C92.3401 32.5404 91.8201 32.4412 91.4001 32.2228C90.9801 32.0045 90.6401 31.7266 90.3801 31.3495C90.1201 30.9923 89.9201 30.5755 89.8001 30.0992C89.6801 29.6228 89.6201 29.1266 89.6201 28.5908C89.6201 28.0747 89.6801 27.5785 89.8201 27.1022C89.9601 26.6259 90.1601 26.2091 90.4401 25.8717C90.7201 25.5144 91.0801 25.2366 91.5001 25.0182C91.9401 24.7999 92.4401 24.7007 93.0401 24.7007C93.6201 24.7007 94.1201 24.7999 94.5401 24.9984C94.9601 25.1969 95.3001 25.4747 95.5601 25.832C95.8201 26.1892 96.0201 26.5862 96.1401 27.0625C96.2801 27.519 96.3401 28.035 96.3401 28.5709ZM94.9601 28.5908C94.9601 28.2137 94.9201 27.8564 94.8601 27.519C94.8001 27.1816 94.6801 26.8839 94.5401 26.6259C94.3801 26.3679 94.1801 26.1694 93.9401 26.0106C93.6801 25.8518 93.3801 25.7923 93.0201 25.7923C92.6401 25.7923 92.3201 25.8717 92.0601 26.0106C91.8001 26.1694 91.6001 26.3679 91.4401 26.6259C91.2801 26.8839 91.1601 27.1816 91.1001 27.519C91.0401 27.8564 91.0001 28.2137 91.0001 28.5908C91.0001 28.9679 91.0401 29.3251 91.1001 29.6824C91.1601 30.0396 91.2801 30.3373 91.4401 30.5953C91.6001 30.8534 91.8001 31.0717 92.0601 31.2305C92.3201 31.3892 92.6201 31.4686 93.0001 31.4686C93.3601 31.4686 93.6801 31.3892 93.9401 31.2305C94.2001 31.0717 94.4001 30.8534 94.5601 30.5953C94.7201 30.3373 94.8201 30.0198 94.9001 29.6824C94.9401 29.3251 94.9601 28.9679 94.9601 28.5908Z" fill="#3D4FA2"/>
<path d="M103.46 30.1787C103.46 30.5955 103.38 30.9528 103.24 31.2307C103.1 31.5085 102.88 31.7268 102.62 31.9055C102.34 32.0642 102.02 32.1833 101.64 32.2627C101.26 32.3223 100.84 32.362 100.36 32.362H98.2201V24.8795C98.5801 24.8398 98.9201 24.82 99.2201 24.8001C99.5201 24.7803 99.8601 24.7803 100.2 24.7803C100.76 24.7803 101.22 24.82 101.58 24.8994C101.96 24.9787 102.26 25.0978 102.48 25.2765C102.7 25.4352 102.86 25.6337 102.96 25.8719C103.06 26.11 103.1 26.3681 103.1 26.6658C103.1 26.9238 103.06 27.1421 103 27.3406C102.92 27.5391 102.84 27.6978 102.72 27.8368C102.6 27.9757 102.48 28.0948 102.36 28.1742C102.22 28.2734 102.1 28.3329 101.98 28.3726C102.12 28.4123 102.26 28.4719 102.44 28.5314C102.6 28.6108 102.76 28.71 102.92 28.849C103.08 28.9879 103.2 29.1665 103.3 29.365C103.4 29.5833 103.46 29.8612 103.46 30.1787ZM101.76 26.7253C101.76 26.5268 101.72 26.3681 101.64 26.2291C101.56 26.11 101.46 26.0108 101.32 25.9314C101.18 25.852 101.02 25.8123 100.82 25.7726C100.62 25.7329 100.42 25.7329 100.18 25.7329C100.02 25.7329 99.8801 25.7329 99.7801 25.7528C99.6801 25.7528 99.5801 25.7726 99.5201 25.7726V28.0154H100.4C100.8 28.0154 101.14 27.8963 101.38 27.678C101.64 27.4398 101.76 27.1421 101.76 26.7253ZM99.5401 31.3696H100.2C100.5 31.3696 100.76 31.3497 101 31.3299C101.24 31.2902 101.44 31.2307 101.6 31.1513C101.76 31.052 101.9 30.9329 101.98 30.7742C102.08 30.6154 102.12 30.3971 102.12 30.1391C102.12 29.9207 102.08 29.7223 102 29.5635C101.92 29.4047 101.8 29.2856 101.64 29.2062C101.5 29.107 101.32 29.0474 101.12 29.0078C100.92 28.9681 100.7 28.9482 100.48 28.9482H99.5601V31.3696H99.5401Z" fill="#3D4FA2"/>
<path d="M49.3002 37.0853C49.3202 37.0853 49.3602 37.0654 49.3802 37.0654C49.4002 37.0654 49.4202 37.0654 49.4402 37.0654C49.4802 37.0654 49.5202 37.0654 49.5602 37.0853C49.6002 37.0853 49.6402 37.1051 49.6802 37.125C49.7202 37.1448 49.7402 37.1845 49.7602 37.2242C49.7802 37.2639 49.8002 37.3234 49.8002 37.383V39.1891L51.0402 37.2441C51.0802 37.1845 51.1202 37.1448 51.1602 37.1051C51.2002 37.0853 51.2602 37.0654 51.3402 37.0654C51.4202 37.0654 51.5002 37.0654 51.5602 37.0853V39.9631H51.0802V37.9189L49.7602 39.9631H49.3402V37.0853H49.3002Z" fill="black"/>
<path d="M52.7201 38.2761H53.9201V37.0853C53.9601 37.0853 53.9801 37.0654 54.0201 37.0654C54.0601 37.0654 54.0801 37.0654 54.1001 37.0654C54.1401 37.0654 54.1801 37.0654 54.2201 37.0853C54.2601 37.0853 54.3001 37.1051 54.3201 37.125C54.3601 37.1448 54.3801 37.1845 54.4001 37.2242C54.4201 37.2639 54.4401 37.3234 54.4401 37.383V39.9631H53.9401V38.6731H52.7401V39.9631H52.2401V37.0853C52.2801 37.0853 52.3001 37.0654 52.3401 37.0654C52.3801 37.0654 52.4001 37.0654 52.4201 37.0654C52.4601 37.0654 52.5001 37.0654 52.5401 37.0853C52.5801 37.0853 52.6201 37.1051 52.6401 37.125C52.6801 37.1448 52.7001 37.1845 52.7201 37.2242C52.7401 37.2639 52.7601 37.3234 52.7601 37.383V38.2761H52.7201Z" fill="black"/>
<path d="M55.6402 38.2761H56.8402V37.0853C56.8802 37.0853 56.9002 37.0654 56.9402 37.0654C56.9802 37.0654 57.0002 37.0654 57.0202 37.0654C57.0602 37.0654 57.1002 37.0654 57.1402 37.0853C57.1802 37.0853 57.2202 37.1051 57.2402 37.125C57.2802 37.1448 57.3002 37.1845 57.3202 37.2242C57.3402 37.2639 57.3602 37.3234 57.3602 37.383V39.9631H56.8602V38.6731H55.6602V39.9631H55.1602V37.0853C55.2002 37.0853 55.2202 37.0654 55.2602 37.0654C55.3002 37.0654 55.3202 37.0654 55.3402 37.0654C55.3802 37.0654 55.4202 37.0654 55.4602 37.0853C55.5002 37.0853 55.5402 37.1051 55.5602 37.125C55.6002 37.1448 55.6202 37.1845 55.6402 37.2242C55.6602 37.2639 55.6802 37.3234 55.6802 37.383V38.2761H55.6402Z" fill="black"/>
<path d="M60.5602 38.5146C60.5602 38.7131 60.5402 38.9115 60.4802 39.11C60.4402 39.2886 60.3602 39.4474 60.2402 39.5864C60.1402 39.7253 60.0002 39.8444 59.8402 39.9238C59.6802 40.0032 59.4802 40.0429 59.2402 40.0429C59.0002 40.0429 58.8202 40.0032 58.6402 39.9238C58.4802 39.8444 58.3402 39.7253 58.2402 39.5864C58.1402 39.4474 58.0602 39.2886 58.0202 39.11C57.9802 38.9314 57.9602 38.7329 57.9602 38.5345C57.9602 38.336 57.9802 38.1375 58.0402 37.9589C58.1002 37.7803 58.1802 37.6215 58.2802 37.4825C58.3802 37.3436 58.5202 37.2444 58.7002 37.165C58.8602 37.0856 59.0602 37.0459 59.2802 37.0459C59.5002 37.0459 59.7002 37.0856 59.8602 37.165C60.0202 37.2444 60.1602 37.3436 60.2602 37.4825C60.3602 37.6215 60.4402 37.7803 60.4802 37.9589C60.5402 38.1177 60.5602 38.3161 60.5602 38.5146ZM60.0402 38.5146C60.0402 38.3757 60.0202 38.2367 60.0002 38.0978C59.9802 37.9589 59.9402 37.8596 59.8802 37.7604C59.8202 37.6612 59.7402 37.5818 59.6402 37.5222C59.5402 37.4627 59.4202 37.4428 59.2802 37.4428C59.1402 37.4428 59.0202 37.4627 58.9202 37.5222C58.8202 37.5818 58.7402 37.6612 58.6802 37.7604C58.6202 37.8596 58.5802 37.9787 58.5402 38.0978C58.5202 38.2367 58.5002 38.3558 58.5002 38.5146C58.5002 38.6535 58.5202 38.7925 58.5402 38.9314C58.5602 39.0703 58.6002 39.1894 58.6602 39.2886C58.7202 39.3879 58.8002 39.4673 58.9002 39.5268C59.0002 39.5864 59.1202 39.6261 59.2602 39.6261C59.4002 39.6261 59.5202 39.5864 59.6202 39.5268C59.7202 39.4673 59.8002 39.3879 59.8602 39.2886C59.9202 39.1894 59.9602 39.0703 59.9802 38.9314C60.0202 38.8123 60.0402 38.6734 60.0402 38.5146Z" fill="black"/>
<path d="M63.2002 39.1299C63.2002 39.2887 63.1802 39.4276 63.1202 39.5268C63.0602 39.6261 62.9802 39.7253 62.8802 39.7848C62.7802 39.8444 62.6602 39.8841 62.5002 39.9238C62.3602 39.9436 62.2002 39.9635 62.0202 39.9635H61.2002V37.1054C61.3402 37.0856 61.4602 37.0856 61.5802 37.0657C61.7002 37.0657 61.8202 37.0459 61.9602 37.0459C62.1802 37.0459 62.3402 37.0657 62.5002 37.0856C62.6402 37.1253 62.7602 37.165 62.8402 37.2245C62.9202 37.2841 62.9802 37.3635 63.0202 37.4627C63.0602 37.5619 63.0802 37.6612 63.0802 37.7803C63.0802 37.8795 63.0602 37.9589 63.0402 38.0383C63.0202 38.1177 62.9802 38.1772 62.9402 38.2367C62.9002 38.2963 62.8402 38.336 62.8002 38.3757C62.7402 38.4154 62.7002 38.4352 62.6602 38.4551C62.7202 38.4749 62.7802 38.4948 62.8402 38.5146C62.9002 38.5344 62.9602 38.5741 63.0202 38.6337C63.0802 38.6932 63.1202 38.7528 63.1602 38.8322C63.1802 38.9116 63.2002 39.0108 63.2002 39.1299ZM62.5602 37.8199C62.5602 37.7406 62.5402 37.681 62.5202 37.6215C62.5002 37.5818 62.4602 37.5421 62.4002 37.5024C62.3402 37.4825 62.2802 37.4627 62.2202 37.4428C62.1402 37.423 62.0602 37.423 61.9802 37.423C61.9202 37.423 61.8602 37.423 61.8202 37.423C61.7802 37.423 61.7402 37.423 61.7202 37.423V38.2764H62.0602C62.2202 38.2764 62.3402 38.2367 62.4402 38.1375C62.5002 38.078 62.5602 37.9589 62.5602 37.8199ZM61.7002 39.5864H61.9602C62.0802 39.5864 62.1802 39.5864 62.2602 39.5665C62.3402 39.5467 62.4202 39.5268 62.5002 39.507C62.5602 39.4673 62.6202 39.4276 62.6402 39.368C62.6802 39.3085 62.7002 39.2291 62.7002 39.1299C62.7002 39.0505 62.6802 38.9711 62.6602 38.9115C62.6202 38.852 62.5802 38.8123 62.5202 38.7726C62.4602 38.7329 62.4002 38.7131 62.3202 38.6932C62.2402 38.6734 62.1602 38.6734 62.0802 38.6734H61.7202V39.5864H61.7002Z" fill="black"/>
<path d="M66.1401 39.9631H65.6201L65.3601 39.2288H64.2801L64.0201 39.9631H63.5201L64.5401 37.125C64.5801 37.1051 64.6201 37.1051 64.6601 37.0853C64.7201 37.0654 64.7601 37.0654 64.8201 37.0654C64.8401 37.0654 64.8801 37.0654 64.9201 37.0654C64.9601 37.0654 64.9801 37.0853 65.0201 37.1051C65.0601 37.125 65.0801 37.1448 65.1001 37.1647C65.1201 37.2044 65.1401 37.2441 65.1601 37.2838L66.1401 39.9631ZM65.2401 38.8517L64.8201 37.5616L64.4001 38.8517H65.2401Z" fill="black"/>
<path d="M66.6001 37.0853C66.6401 37.0853 66.6601 37.0654 66.7001 37.0654C66.7401 37.0654 66.7601 37.0654 66.7801 37.0654C66.8201 37.0654 66.8601 37.0654 66.9001 37.0853C66.9401 37.0853 66.9801 37.1051 67.0201 37.125C67.0601 37.1448 67.0801 37.1845 67.1001 37.2242C67.1201 37.2639 67.1401 37.3234 67.1401 37.383V39.5662H68.3001V37.0853C68.3401 37.0853 68.3601 37.0654 68.4001 37.0654C68.4401 37.0654 68.4601 37.0654 68.4801 37.0654C68.5201 37.0654 68.5601 37.0654 68.6001 37.0853C68.6401 37.0853 68.6801 37.1051 68.7201 37.125C68.7601 37.1448 68.7801 37.1845 68.8001 37.2242C68.8201 37.2639 68.8401 37.3234 68.8401 37.383V39.5662H69.1401V40.6578H68.6601V39.983H66.6601V37.0853H66.6001Z" fill="black"/>
<path d="M69.54 37.0853C69.56 37.0853 69.6 37.0654 69.62 37.0654C69.64 37.0654 69.66 37.0654 69.68 37.0654C69.72 37.0654 69.76 37.0654 69.8 37.0853C69.84 37.0853 69.88 37.1051 69.92 37.125C69.96 37.1448 69.98 37.1845 70 37.2242C70.02 37.2639 70.04 37.3234 70.04 37.383V39.1891L71.28 37.2441C71.32 37.1845 71.36 37.1448 71.4 37.1051C71.44 37.0853 71.5 37.0654 71.58 37.0654C71.66 37.0654 71.74 37.0654 71.8 37.0853V39.9631H71.32V37.9189L70 39.9631H69.58V37.0853H69.54Z" fill="black"/>
<path d="M72.4802 37.0853C72.5002 37.0853 72.5402 37.0654 72.5602 37.0654C72.5802 37.0654 72.6002 37.0654 72.6202 37.0654C72.6602 37.0654 72.7002 37.0654 72.7402 37.0853C72.7802 37.0853 72.8202 37.1051 72.8602 37.125C72.9002 37.1448 72.9202 37.1845 72.9402 37.2242C72.9602 37.2639 72.9802 37.3234 72.9802 37.383V39.1891L74.2202 37.2441C74.2602 37.1845 74.3002 37.1448 74.3402 37.1051C74.3802 37.0853 74.4402 37.0654 74.5202 37.0654C74.6002 37.0654 74.6802 37.0654 74.7402 37.0853V39.9631H74.2602V37.9189L72.9402 39.9631H72.5202V37.0853H72.4802Z" fill="black"/>
<path d="M77.4602 37.0853C77.4802 37.0853 77.5202 37.0654 77.5402 37.0654C77.5602 37.0654 77.5802 37.0654 77.6002 37.0654C77.6402 37.0654 77.6802 37.0654 77.7202 37.0853C77.7602 37.0853 77.8002 37.1051 77.8402 37.125C77.8802 37.1448 77.9002 37.1845 77.9202 37.2242C77.9402 37.2639 77.9602 37.3234 77.9602 37.383V39.1891L79.2002 37.2441C79.2402 37.1845 79.2802 37.1448 79.3202 37.1051C79.3602 37.0853 79.4202 37.0654 79.5002 37.0654C79.5802 37.0654 79.6602 37.0654 79.7202 37.0853V39.9631H79.2402V37.9189L77.9202 39.9631H77.5002V37.0853H77.4602Z" fill="black"/>
<path d="M82.4602 39.9633V37.0854H84.6602V39.9633H84.1602V37.5022H82.9602V39.9633H82.4602Z" fill="black"/>
<path d="M87.3002 37.919C87.3002 38.0976 87.2602 38.2564 87.2002 38.3953C87.1402 38.5144 87.0602 38.6335 86.9402 38.6931C86.8402 38.7724 86.7002 38.832 86.5602 38.8518C86.4202 38.8915 86.2802 38.8915 86.1202 38.8915H85.8802V39.9434H85.3602V37.0854C85.4802 37.0656 85.6002 37.0656 85.7402 37.0457C85.8602 37.0457 85.9802 37.0259 86.1002 37.0259C86.5202 37.0259 86.8202 37.1053 87.0002 37.2442C87.2002 37.4228 87.3002 37.6411 87.3002 37.919ZM86.7802 37.9389C86.7802 37.8396 86.7602 37.7602 86.7402 37.7007C86.7002 37.6411 86.6602 37.5816 86.6202 37.5419C86.5602 37.5022 86.5002 37.4625 86.4202 37.4625C86.3402 37.4427 86.2602 37.4427 86.1802 37.4427C86.1402 37.4427 86.0802 37.4427 86.0402 37.4427C86.0002 37.4427 85.9602 37.4427 85.9002 37.4625V38.5343H86.0602C86.1802 38.5343 86.2802 38.5343 86.3802 38.5144C86.4802 38.4946 86.5402 38.4549 86.6202 38.4152C86.6802 38.3755 86.7202 38.316 86.7602 38.2366C86.7602 38.1572 86.7802 38.0579 86.7802 37.9389Z" fill="black"/>
<path d="M89.8401 39.9631H89.3201L89.0601 39.2288H87.9801L87.7201 39.9631H87.2201L88.2401 37.125C88.2801 37.1051 88.3201 37.1051 88.3601 37.0853C88.4201 37.0654 88.4601 37.0654 88.5201 37.0654C88.5401 37.0654 88.5801 37.0654 88.6201 37.0654C88.6601 37.0654 88.6801 37.0853 88.7201 37.1051C88.7601 37.125 88.7801 37.1448 88.8001 37.1647C88.8201 37.2044 88.8401 37.2441 88.8601 37.2838L89.8401 39.9631ZM88.9401 38.8517L88.5201 37.5616L88.1001 38.8517H88.9401Z" fill="black"/>
<path d="M90.2802 39.9631V37.0853C90.3202 37.0853 90.3402 37.0654 90.3802 37.0654C90.4202 37.0654 90.4401 37.0654 90.4601 37.0654C90.5001 37.0654 90.5402 37.0654 90.5801 37.0853C90.6201 37.0853 90.6601 37.1051 90.6801 37.125C90.7201 37.1448 90.7401 37.1845 90.7601 37.2242C90.7801 37.2639 90.8001 37.3234 90.8001 37.383V39.9631H90.2802ZM92.2201 40.0028C92.1201 40.0028 92.0401 39.983 91.9601 39.9433C91.9001 39.9036 91.8401 39.8441 91.8001 39.7845L91.4801 39.2486C91.4001 39.1097 91.3001 38.9708 91.2201 38.8715C91.1401 38.7723 91.0201 38.7128 90.9201 38.6731V38.2761C90.9801 38.2563 91.0201 38.2364 91.0801 38.1967C91.1201 38.157 91.1601 38.1173 91.2001 38.0776C91.2401 38.0379 91.2801 37.9784 91.3201 37.9189C91.3601 37.8593 91.4001 37.7998 91.4601 37.7204L91.6601 37.4425C91.7201 37.3433 91.8001 37.2441 91.8801 37.1845C91.9601 37.1051 92.0601 37.0853 92.1601 37.0853C92.2401 37.0853 92.3201 37.1051 92.3801 37.1448C92.4401 37.1845 92.4601 37.2441 92.4601 37.3433C92.4601 37.383 92.4601 37.4028 92.4601 37.4028C92.3801 37.4028 92.3001 37.4227 92.2401 37.4822C92.1801 37.5418 92.1201 37.6013 92.0801 37.6608L91.8401 38.0181C91.7801 38.0975 91.7201 38.1967 91.6601 38.2761C91.6001 38.3555 91.5001 38.415 91.3801 38.4349C91.5001 38.4746 91.6001 38.5341 91.7001 38.6135C91.7801 38.6929 91.8601 38.812 91.9401 38.9311L92.5401 39.9433C92.4801 39.983 92.4201 40.0028 92.3601 40.0028C92.3401 40.0028 92.3201 40.0028 92.3001 40.0028C92.2601 40.0028 92.2401 40.0028 92.2201 40.0028Z" fill="black"/>
<path d="M93.6202 39.9633V37.5022H92.7002C92.7002 37.4625 92.7002 37.4427 92.6802 37.4229C92.6802 37.403 92.6802 37.3832 92.6802 37.3435C92.6802 37.2839 92.7002 37.2045 92.7602 37.1648C92.8202 37.1053 92.9002 37.0854 93.0002 37.0854H95.0201C95.0201 37.1053 95.0201 37.145 95.0201 37.1648C95.0201 37.1847 95.0201 37.2244 95.0201 37.2442C95.0201 37.3236 95.0001 37.3832 94.9401 37.4427C94.9002 37.5022 94.8201 37.5221 94.7001 37.5221H94.1002V39.9832H93.6202V39.9633Z" fill="black"/>
<path d="M95.4802 37.0853C95.5002 37.0853 95.5402 37.0654 95.5602 37.0654C95.5802 37.0654 95.6002 37.0654 95.6202 37.0654C95.6602 37.0654 95.7002 37.0654 95.7402 37.0853C95.7802 37.0853 95.8202 37.1051 95.8602 37.125C95.9002 37.1448 95.9202 37.1845 95.9402 37.2242C95.9602 37.2639 95.9802 37.3234 95.9802 37.383V39.1891L97.2202 37.2441C97.2602 37.1845 97.3002 37.1448 97.3402 37.1051C97.3802 37.0853 97.4402 37.0654 97.5202 37.0654C97.6002 37.0654 97.6802 37.0654 97.7402 37.0853V39.9631H97.2602V37.9189L95.9402 39.9631H95.5202V37.0853H95.4802Z" fill="black"/>
<path d="M98.4003 39.9631V37.0853C98.4403 37.0853 98.4603 37.0654 98.5003 37.0654C98.5403 37.0654 98.5603 37.0654 98.5803 37.0654C98.6203 37.0654 98.6603 37.0654 98.7003 37.0853C98.7403 37.0853 98.7803 37.1051 98.8003 37.125C98.8403 37.1448 98.8603 37.1845 98.8803 37.2242C98.9003 37.2639 98.9203 37.3234 98.9203 37.383V39.9631H98.4003ZM100.34 40.0028C100.24 40.0028 100.16 39.983 100.08 39.9433C100.02 39.9036 99.9603 39.8441 99.9203 39.7845L99.6003 39.2486C99.5203 39.1097 99.4203 38.9708 99.3403 38.8715C99.2603 38.7723 99.1403 38.7128 99.0403 38.6731V38.2761C99.1003 38.2563 99.1403 38.2364 99.2003 38.1967C99.2403 38.157 99.2803 38.1173 99.3203 38.0776C99.3603 38.0379 99.4003 37.9784 99.4403 37.9189C99.4803 37.8593 99.5203 37.7998 99.5803 37.7204L99.7803 37.4425C99.8403 37.3433 99.9203 37.2441 100 37.1845C100.08 37.1051 100.18 37.0853 100.28 37.0853C100.36 37.0853 100.44 37.1051 100.5 37.1448C100.56 37.1845 100.58 37.2441 100.58 37.3433C100.58 37.383 100.58 37.4028 100.58 37.4028C100.5 37.4028 100.42 37.4227 100.36 37.4822C100.3 37.5418 100.24 37.6013 100.2 37.6608L99.9603 38.0181C99.9003 38.0975 99.8403 38.1967 99.7803 38.2761C99.7203 38.3555 99.6203 38.415 99.5003 38.4349C99.6203 38.4746 99.7203 38.5341 99.8203 38.6135C99.9003 38.6929 99.9803 38.812 100.06 38.9311L100.66 39.9433C100.6 39.983 100.54 40.0028 100.48 40.0028C100.46 40.0028 100.44 40.0028 100.42 40.0028C100.38 40.0028 100.36 40.0028 100.34 40.0028Z" fill="black"/>
<path d="M103.46 39.9631H102.94L102.68 39.2288H101.6L101.34 39.9631H100.84L101.86 37.125C101.9 37.1051 101.94 37.1051 101.98 37.0853C102.04 37.0654 102.08 37.0654 102.14 37.0654C102.16 37.0654 102.2 37.0654 102.24 37.0654C102.28 37.0654 102.3 37.0853 102.34 37.1051C102.38 37.125 102.4 37.1448 102.42 37.1647C102.44 37.2044 102.46 37.2441 102.48 37.2838L103.46 39.9631ZM102.56 38.8517L102.14 37.5616L101.72 38.8517H102.56Z" fill="black"/>
<path d="M49.7399 43.5754H50.9399V42.3846C50.9799 42.3846 50.9999 42.3647 51.0399 42.3647C51.0799 42.3647 51.0999 42.3647 51.1199 42.3647C51.1599 42.3647 51.1999 42.3647 51.2399 42.3846C51.2799 42.3846 51.3199 42.4044 51.3399 42.4243C51.3799 42.4441 51.3999 42.4838 51.4199 42.5235C51.4399 42.5632 51.4599 42.6228 51.4599 42.6823V45.2625H50.9599V43.9724H49.7599V45.2625H49.2599V42.3846C49.2999 42.3846 49.3199 42.3647 49.3599 42.3647C49.3999 42.3647 49.4199 42.3647 49.4399 42.3647C49.4799 42.3647 49.5199 42.3647 49.5599 42.3846C49.5999 42.3846 49.6399 42.4044 49.6599 42.4243C49.6999 42.4441 49.7199 42.4838 49.7399 42.5235C49.7599 42.5632 49.7799 42.6228 49.7799 42.6823V43.5754H49.7399Z" fill="black"/>
<path d="M54.6599 43.7939C54.6599 43.9924 54.6399 44.1908 54.5799 44.3893C54.5399 44.5679 54.4599 44.7267 54.3399 44.8656C54.2399 45.0046 54.0999 45.1237 53.9399 45.2031C53.7799 45.2824 53.5799 45.3221 53.3399 45.3221C53.0999 45.3221 52.9199 45.2824 52.7399 45.2031C52.5799 45.1237 52.4399 45.0046 52.3399 44.8656C52.2399 44.7267 52.1599 44.5679 52.1199 44.3893C52.0799 44.2107 52.0599 44.0122 52.0599 43.8137C52.0599 43.6153 52.0799 43.4168 52.1399 43.2382C52.1999 43.0595 52.2799 42.9008 52.3799 42.7618C52.4799 42.6229 52.6199 42.5237 52.7999 42.4443C52.9599 42.3649 53.1599 42.3252 53.3799 42.3252C53.5999 42.3252 53.7999 42.3649 53.9599 42.4443C54.1199 42.5237 54.2599 42.6229 54.3599 42.7618C54.4599 42.9008 54.5399 43.0595 54.5799 43.2382C54.6399 43.3969 54.6599 43.5954 54.6599 43.7939ZM54.1399 43.8137C54.1399 43.6748 54.1199 43.5359 54.0999 43.3969C54.0799 43.258 54.0399 43.1588 53.9799 43.0595C53.9199 42.9603 53.8399 42.8809 53.7399 42.8214C53.6399 42.7618 53.5199 42.742 53.3799 42.742C53.2399 42.742 53.1199 42.7618 53.0199 42.8214C52.9199 42.8809 52.8399 42.9603 52.7799 43.0595C52.7199 43.1588 52.6799 43.2779 52.6399 43.3969C52.6199 43.5359 52.5999 43.655 52.5999 43.8137C52.5999 43.9527 52.6199 44.0916 52.6399 44.2305C52.6599 44.3695 52.6999 44.4885 52.7599 44.5878C52.8199 44.687 52.8999 44.7664 52.9999 44.826C53.0999 44.8855 53.2199 44.9252 53.3599 44.9252C53.4999 44.9252 53.6199 44.8855 53.7199 44.826C53.8199 44.7664 53.8999 44.687 53.9599 44.5878C54.0199 44.4885 54.0599 44.3695 54.0799 44.2305C54.1199 44.0916 54.1399 43.9527 54.1399 43.8137Z" fill="black"/>
<path d="M78.9599 43.5754H80.1599V42.3846C80.1999 42.3846 80.2199 42.3647 80.2599 42.3647C80.2999 42.3647 80.3199 42.3647 80.3399 42.3647C80.3799 42.3647 80.4199 42.3647 80.4599 42.3846C80.4999 42.3846 80.5399 42.4044 80.5599 42.4243C80.5999 42.4441 80.6199 42.4838 80.6399 42.5235C80.6599 42.5632 80.6799 42.6228 80.6799 42.6823V45.2625H80.1799V43.9724H78.9799V45.2625H78.4799V42.3846C78.5199 42.3846 78.5399 42.3647 78.5799 42.3647C78.6199 42.3647 78.6399 42.3647 78.6599 42.3647C78.6999 42.3647 78.7399 42.3647 78.7799 42.3846C78.8199 42.3846 78.8599 42.4044 78.8799 42.4243C78.9199 42.4441 78.9399 42.4838 78.9599 42.5235C78.9799 42.5632 78.9999 42.6228 78.9999 42.6823V43.5754H78.9599Z" fill="black"/>
<path d="M83.8799 43.7939C83.8799 43.9924 83.8599 44.1908 83.7999 44.3893C83.7599 44.5679 83.6799 44.7267 83.5599 44.8656C83.4599 45.0046 83.3199 45.1237 83.1599 45.2031C82.9999 45.2824 82.7999 45.3221 82.5599 45.3221C82.3199 45.3221 82.1399 45.2824 81.9599 45.2031C81.7999 45.1237 81.6599 45.0046 81.5599 44.8656C81.4599 44.7267 81.3799 44.5679 81.3399 44.3893C81.2999 44.2107 81.2799 44.0122 81.2799 43.8137C81.2799 43.6153 81.2999 43.4168 81.3599 43.2382C81.4199 43.0595 81.4999 42.9008 81.5999 42.7618C81.6999 42.6229 81.8399 42.5237 82.0199 42.4443C82.1799 42.3649 82.3799 42.3252 82.5999 42.3252C82.8199 42.3252 83.0199 42.3649 83.1799 42.4443C83.3399 42.5237 83.4799 42.6229 83.5799 42.7618C83.6799 42.9008 83.7599 43.0595 83.7999 43.2382C83.8599 43.3969 83.8799 43.5954 83.8799 43.7939ZM83.3599 43.8137C83.3599 43.6748 83.3399 43.5359 83.3199 43.3969C83.2999 43.258 83.2599 43.1588 83.1999 43.0595C83.1399 42.9603 83.0599 42.8809 82.9599 42.8214C82.8599 42.7618 82.7399 42.742 82.5999 42.742C82.4599 42.742 82.3399 42.7618 82.2399 42.8214C82.1399 42.8809 82.0599 42.9603 81.9999 43.0595C81.9399 43.1588 81.8999 43.2779 81.8599 43.3969C81.8399 43.5359 81.8199 43.655 81.8199 43.8137C81.8199 43.9527 81.8399 44.0916 81.8599 44.2305C81.8799 44.3695 81.9199 44.4885 81.9799 44.5878C82.0399 44.687 82.1199 44.7664 82.2199 44.826C82.3199 44.8855 82.4399 44.9252 82.5799 44.9252C82.7199 44.9252 82.8399 44.8855 82.9399 44.826C83.0399 44.7664 83.1199 44.687 83.1799 44.5878C83.2399 44.4885 83.2799 44.3695 83.2999 44.2305C83.3399 44.0916 83.3599 43.9527 83.3599 43.8137Z" fill="black"/>
<path d="M57.2999 44.4292C57.2999 44.588 57.2799 44.7269 57.2199 44.8261C57.1599 44.9254 57.0799 45.0246 56.9799 45.0841C56.8799 45.1437 56.7599 45.1834 56.5999 45.2231C56.4599 45.2429 56.2999 45.2628 56.1199 45.2628H55.2999V42.4048C55.4399 42.3849 55.5599 42.3849 55.6799 42.3651C55.7999 42.3651 55.9199 42.3452 56.0599 42.3452C56.2799 42.3452 56.4399 42.3651 56.5999 42.3849C56.7399 42.4246 56.8599 42.4643 56.9399 42.5238C57.0199 42.5834 57.0799 42.6628 57.1199 42.762C57.1599 42.8612 57.1799 42.9605 57.1799 43.0796C57.1799 43.1788 57.1599 43.2582 57.1399 43.3376C57.1199 43.417 57.0799 43.4765 57.0399 43.5361C56.9999 43.5956 56.9399 43.6353 56.8999 43.675C56.8399 43.7147 56.7999 43.7345 56.7599 43.7544C56.8199 43.7742 56.8799 43.7941 56.9399 43.8139C56.9999 43.8338 57.0599 43.8735 57.1199 43.933C57.1799 43.9925 57.2199 44.0521 57.2599 44.1315C57.2799 44.2109 57.2999 44.3101 57.2999 44.4292ZM56.6599 43.1193C56.6599 43.0399 56.6399 42.9803 56.6199 42.9208C56.5999 42.8811 56.5599 42.8414 56.4999 42.8017C56.4399 42.7819 56.3799 42.762 56.3199 42.7422C56.2399 42.7223 56.1599 42.7223 56.0799 42.7223C56.0199 42.7223 55.9599 42.7223 55.9199 42.7223C55.8799 42.7223 55.8399 42.7223 55.8199 42.7223V43.5757H56.1599C56.3199 43.5757 56.4399 43.5361 56.5399 43.4368C56.5999 43.3971 56.6599 43.278 56.6599 43.1193ZM55.7999 44.8857H56.0599C56.1799 44.8857 56.2799 44.8857 56.3599 44.8658C56.4399 44.846 56.5199 44.8261 56.5999 44.8063C56.6599 44.7666 56.7199 44.7269 56.7399 44.6673C56.7799 44.6078 56.7999 44.5284 56.7999 44.4292C56.7999 44.3498 56.7799 44.2704 56.7599 44.2109C56.7199 44.1513 56.6799 44.1116 56.6199 44.0719C56.5599 44.0322 56.4999 44.0124 56.4199 43.9925C56.3399 43.9727 56.2599 43.9727 56.1799 43.9727H55.7999V44.8857Z" fill="black"/>
<path d="M60.2399 45.2625H59.7199L59.4599 44.5281H58.3799L58.1199 45.2625H57.6199L58.6399 42.4243C58.6799 42.4044 58.7199 42.4044 58.7599 42.3846C58.8199 42.3647 58.8599 42.3647 58.9199 42.3647C58.9399 42.3647 58.9799 42.3647 59.0199 42.3647C59.0599 42.3647 59.0799 42.3846 59.1199 42.4044C59.1599 42.4243 59.1799 42.4441 59.1999 42.464C59.2199 42.5037 59.2399 42.5434 59.2599 42.5831L60.2399 45.2625ZM59.3399 44.151L58.9199 42.8609L58.4999 44.151H59.3399Z" fill="black"/>
<path d="M72.5399 45.2625H71.9999L71.7399 44.5281H70.6599L70.3999 45.2625H69.8999L70.9199 42.4243C70.9599 42.4044 70.9999 42.4044 71.0399 42.3846C71.0999 42.3647 71.1399 42.3647 71.1999 42.3647C71.2199 42.3647 71.2599 42.3647 71.2999 42.3647C71.3399 42.3647 71.3599 42.3846 71.3999 42.4044C71.4399 42.4243 71.4599 42.4441 71.4799 42.464C71.4999 42.5037 71.5199 42.5434 71.5399 42.5831L72.5399 45.2625ZM71.6399 44.151L71.2199 42.8609L70.7999 44.151H71.6399Z" fill="black"/>
<path d="M67.1799 43.2183C67.1799 43.3969 67.1399 43.5557 67.0799 43.6947C67.0199 43.8137 66.9399 43.9328 66.8199 43.9924C66.7199 44.0718 66.5799 44.1313 66.4399 44.1511C66.2999 44.1908 66.1599 44.1908 65.9999 44.1908H65.7599V45.2427H65.2399V42.3847C65.3599 42.3649 65.4799 42.3649 65.6199 42.345C65.7399 42.345 65.8599 42.3252 65.9799 42.3252C66.3999 42.3252 66.6999 42.4046 66.8799 42.5435C67.0799 42.7221 67.1799 42.9405 67.1799 43.2183ZM66.6599 43.2382C66.6599 43.1389 66.6399 43.0595 66.6199 43C66.5799 42.9405 66.5399 42.8809 66.4999 42.8412C66.4399 42.8015 66.3799 42.7618 66.2999 42.7618C66.2199 42.742 66.1399 42.742 66.0599 42.742C66.0199 42.742 65.9599 42.742 65.9199 42.742C65.8799 42.742 65.8399 42.742 65.7799 42.7618V43.8336H65.9399C66.0599 43.8336 66.1599 43.8336 66.2599 43.8137C66.3599 43.7939 66.4199 43.7542 66.4999 43.7145C66.5599 43.6748 66.5999 43.6153 66.6399 43.5359C66.6399 43.4565 66.6599 43.3573 66.6599 43.2382Z" fill="black"/>
<path d="M77.5599 45.064C77.3799 45.2029 77.0599 45.2823 76.6599 45.2823C76.5599 45.2823 76.4399 45.2823 76.2999 45.2625C76.1799 45.2625 76.0399 45.2426 75.9199 45.2228V42.3647H76.4399V43.4167H76.6799C76.8399 43.4167 76.9799 43.4365 77.1199 43.4563C77.2599 43.496 77.3799 43.5357 77.4999 43.6151C77.5999 43.6945 77.6999 43.7938 77.7599 43.9128C77.8199 44.0319 77.8599 44.1907 77.8599 44.3892C77.8599 44.7067 77.7599 44.9052 77.5599 45.064ZM77.2799 44.0915C77.2399 44.0121 77.1999 43.9525 77.1399 43.9128C77.0799 43.8731 76.9999 43.8335 76.8999 43.8136C76.7999 43.7938 76.6999 43.7938 76.5799 43.7938H76.4199V44.8655C76.4599 44.8655 76.5199 44.8854 76.5599 44.8854C76.5999 44.8854 76.6599 44.8854 76.6999 44.8854C76.7799 44.8854 76.8799 44.8854 76.9399 44.8655C77.0199 44.8457 77.0799 44.8258 77.1399 44.7861C77.1999 44.7464 77.2399 44.6869 77.2599 44.6273C77.2999 44.5678 77.2999 44.4884 77.2999 44.3892C77.3399 44.2701 77.3199 44.1709 77.2799 44.0915Z" fill="black"/>
<path d="M91.1799 45.064C90.9999 45.2029 90.6799 45.2823 90.2799 45.2823C90.1799 45.2823 90.0599 45.2823 89.9199 45.2625C89.7999 45.2625 89.6599 45.2426 89.5399 45.2228V42.3647H90.0599V43.4167H90.2999C90.4599 43.4167 90.5999 43.4365 90.7399 43.4563C90.8799 43.496 90.9999 43.5357 91.1199 43.6151C91.2199 43.6945 91.3199 43.7938 91.3799 43.9128C91.4399 44.0319 91.4799 44.1907 91.4799 44.3892C91.4799 44.7067 91.3799 44.9052 91.1799 45.064ZM90.8999 44.0915C90.8599 44.0121 90.8199 43.9525 90.7599 43.9128C90.6999 43.8731 90.6199 43.8335 90.5199 43.8136C90.4199 43.7938 90.3199 43.7938 90.1999 43.7938H90.0399V44.8655C90.0799 44.8655 90.1399 44.8854 90.1799 44.8854C90.2199 44.8854 90.2799 44.8854 90.3199 44.8854C90.3999 44.8854 90.4999 44.8854 90.5599 44.8655C90.6399 44.8457 90.6999 44.8258 90.7599 44.7861C90.8199 44.7464 90.8599 44.6869 90.8799 44.6273C90.9199 44.5678 90.9199 44.4884 90.9199 44.3892C90.9599 44.2701 90.9399 44.1709 90.8999 44.0915Z" fill="black"/>
<path d="M87.7999 45.2626V42.8016H86.8799C86.8799 42.7619 86.8799 42.742 86.8599 42.7222C86.8599 42.7023 86.8599 42.6825 86.8599 42.6428C86.8599 42.5832 86.8799 42.5038 86.9399 42.4642C86.9999 42.4046 87.0799 42.3848 87.1799 42.3848H89.1999C89.1999 42.4046 89.1999 42.4443 89.1999 42.4642C89.1999 42.484 89.1999 42.5237 89.1999 42.5435C89.1999 42.6229 89.1799 42.6825 89.1199 42.742C89.0799 42.8016 88.9999 42.8214 88.8799 42.8214H88.2799V45.2825H87.7999V45.2626Z" fill="black"/>
<path d="M86.54 45.0245C86.52 45.0443 86.5 45.0642 86.46 45.084C86.42 45.1039 86.36 45.1436 86.3 45.1634C86.24 45.1832 86.16 45.2229 86.06 45.2428C85.96 45.2626 85.86 45.2626 85.74 45.2626C85.52 45.2626 85.32 45.2229 85.16 45.1634C85 45.1039 84.86 44.9848 84.76 44.8657C84.66 44.7466 84.58 44.5878 84.54 44.4092C84.5 44.2306 84.46 44.0321 84.46 43.8336C84.46 43.6153 84.48 43.4367 84.54 43.258C84.6 43.0794 84.68 42.9206 84.78 42.8016C84.88 42.6626 85.02 42.5634 85.18 42.5039C85.34 42.4245 85.52 42.3848 85.74 42.3848C85.84 42.3848 85.94 42.4046 86.04 42.4245C86.14 42.4443 86.2 42.484 86.28 42.5039C86.34 42.5435 86.4 42.5634 86.44 42.6031C86.48 42.6428 86.52 42.6626 86.54 42.7023C86.56 42.7222 86.56 42.742 86.56 42.7619C86.56 42.7817 86.56 42.8016 86.56 42.8214C86.56 42.881 86.54 42.9206 86.5 42.9802C86.46 43.0397 86.42 43.0794 86.38 43.0993C86.34 43.0596 86.3 43.0397 86.26 43C86.22 42.9603 86.18 42.9405 86.12 42.9008C86.06 42.881 86 42.8413 85.94 42.8413C85.88 42.8214 85.8 42.8214 85.72 42.8214C85.56 42.8214 85.44 42.8611 85.34 42.9206C85.24 42.9802 85.16 43.0596 85.1 43.1588C85.04 43.258 85 43.3573 84.96 43.4962C84.94 43.6153 84.92 43.7542 84.92 43.8733C84.92 44.0123 84.94 44.1313 84.96 44.2703C84.98 44.3894 85.04 44.5084 85.1 44.6077C85.16 44.7069 85.24 44.7863 85.36 44.8458C85.46 44.9054 85.6 44.9252 85.76 44.9252C85.84 44.9252 85.92 44.9054 86 44.8855C86.06 44.8657 86.12 44.8458 86.18 44.8061C86.24 44.7863 86.28 44.7466 86.3 44.7069C86.34 44.6672 86.36 44.6474 86.4 44.6275C86.42 44.6474 86.44 44.6672 86.46 44.6871C86.48 44.7069 86.5 44.7466 86.52 44.7665C86.54 44.7863 86.56 44.826 86.56 44.8458C86.58 44.8657 86.58 44.8855 86.58 44.9054C86.58 44.9451 86.58 44.9649 86.56 44.9848C86.58 44.9649 86.56 44.9848 86.54 45.0245Z" fill="black"/>
<path d="M68.1399 44.846H69.1399C69.2599 44.846 69.3399 44.8658 69.3999 44.9254C69.4399 44.9849 69.4799 45.0445 69.4799 45.1238C69.4799 45.1437 69.4799 45.1635 69.4799 45.1834C69.4799 45.2032 69.4799 45.2231 69.4799 45.2429H67.6399V42.3452H69.3999C69.3999 42.3651 69.3999 42.3849 69.4199 42.4048C69.4199 42.4246 69.4199 42.4444 69.4199 42.4841C69.4199 42.5834 69.3999 42.6429 69.3599 42.6826C69.3199 42.7223 69.2199 42.762 69.0999 42.762H68.1599V43.5361H69.1199V43.9528H68.1599V44.846H68.1399Z" fill="black"/>
<path d="M62.3598 42.3651C62.2398 42.3651 62.1199 42.3452 61.9999 42.3452C61.6399 42.3452 61.3799 42.4048 61.1799 42.504C61.1599 42.5238 61.1199 42.5437 61.0999 42.5635C60.9799 42.6628 60.8999 42.7819 60.8599 42.9406C60.8399 43.02 60.8199 43.0994 60.8199 43.1986C60.8199 43.3773 60.8599 43.5361 60.9199 43.675C60.9799 43.7941 61.0599 43.9132 61.1799 43.9727C61.2399 44.0124 61.2999 44.0521 61.3799 44.0719C61.3199 44.1315 61.2599 44.2109 61.2199 44.2903L60.9799 44.6475C60.9399 44.707 60.8799 44.7864 60.8199 44.8261C60.7599 44.8857 60.6799 44.9055 60.5999 44.9055C60.5999 44.9055 60.5999 44.9452 60.5999 44.9651C60.5999 45.0444 60.6199 45.1238 60.6799 45.1635C60.7399 45.2032 60.7999 45.2231 60.8999 45.2231C61.0199 45.2231 61.0999 45.1834 61.1799 45.1238C61.2599 45.0445 61.3399 44.9651 61.3999 44.8658L61.5999 44.588C61.6599 44.5086 61.6999 44.449 61.7399 44.3895C61.7799 44.3299 61.8198 44.2704 61.8598 44.2307C61.8798 44.2109 61.8999 44.2109 61.8999 44.191C61.9399 44.191 61.9799 44.191 62.0199 44.191H62.2598V45.2429H62.7799V42.3849C62.5999 42.3849 62.4798 42.3849 62.3598 42.3651ZM62.2199 43.8338H62.0799H62.0598C61.9398 43.8338 61.8399 43.8338 61.7399 43.8139C61.6399 43.7941 61.5799 43.7544 61.4999 43.7147C61.4399 43.675 61.3999 43.6154 61.3599 43.5361C61.3199 43.4567 61.3199 43.3574 61.3199 43.2582C61.3199 43.159 61.3399 43.0796 61.3599 43.02C61.3799 43.0002 61.3999 42.9605 61.3999 42.9406C61.4199 42.9009 61.4399 42.8811 61.4799 42.8612C61.5399 42.8215 61.5999 42.7819 61.6799 42.7819C61.7599 42.762 61.8399 42.762 61.9199 42.762C61.9599 42.762 62.0198 42.762 62.0598 42.762C62.0998 42.762 62.1399 42.762 62.1999 42.7819V43.8338H62.2199Z" fill="black"/>
<path d="M74.6199 42.6031C74.5999 42.5634 74.5799 42.5237 74.5599 42.484C74.5399 42.4443 74.4999 42.4245 74.4799 42.4245C74.4399 42.4046 74.4199 42.4046 74.3799 42.3848C74.3399 42.3848 74.3199 42.3848 74.2799 42.3848C74.2199 42.3848 74.1599 42.3848 74.1199 42.4046C74.0599 42.4245 74.0199 42.4245 73.9999 42.4443L72.9799 45.2825H73.4799L73.7399 44.5481L73.8399 44.171L74.2599 42.8809L74.6799 44.171L74.7799 44.5481L75.0399 45.2825H75.5599L74.6199 42.6031Z" fill="black"/>
<path d="M37.8 32.4703C31.58 42.3146 24.18 42.3741 24.18 42.3741C28.74 41.1237 33.42 38.6428 36.68 33.5817C39.14 29.771 41 25.0077 41.78 22.884C41.76 21.7329 41.66 20.6016 41.44 19.51L38.36 25.3252C37.86 26.2978 36.72 26.7146 35.86 26.2581C35 25.8016 34.7 24.6504 35.2 23.6779L39.9 14.7863C39.62 14.2107 39.34 13.655 39 13.1191L23.28 42.8703C25.06 42.7512 26.78 42.3939 28.4 41.8184C31.48 40.5481 35.42 37.7894 38.62 31.8749C40.14 29.0367 41 27.2703 41.56 26.0001C41.7 25.0871 41.76 24.1543 41.76 23.2016C40.2 28.481 37.8 32.4703 37.8 32.4703Z" fill="#3D4FA2"/>
<path d="M11.68 34.1171H9.66002L6.02002 23.5584C6.12002 23.5187 6.26002 23.4988 6.44002 23.479C6.62002 23.4591 6.82002 23.4393 7.02002 23.4393C7.68002 23.4393 8.12002 23.7965 8.34002 24.4912L10.72 32.1126L13.16 24.4515C13.26 24.1141 13.42 23.8561 13.62 23.6774C13.82 23.4988 14.1 23.4194 14.46 23.4194C14.6 23.4194 14.76 23.4194 14.88 23.4393C15.02 23.4591 15.18 23.4988 15.34 23.5385L11.68 34.1171Z" fill="white"/>
<path d="M16.36 34.0379V23.499C16.48 23.4791 16.6 23.4593 16.7 23.4593C16.82 23.4395 16.9 23.4395 16.98 23.4395C17.1 23.4395 17.24 23.4593 17.4 23.4791C17.54 23.499 17.68 23.5585 17.8 23.6379C17.92 23.7173 18.02 23.8364 18.1 23.9753C18.18 24.1341 18.22 24.3326 18.22 24.5707V34.0379H16.36Z" fill="white"/>
<path d="M19.66 34.0379V23.499C19.78 23.4791 19.9 23.4593 20 23.4593C20.12 23.4395 20.2 23.4395 20.28 23.4395C20.4 23.4395 20.54 23.4593 20.7 23.4791C20.84 23.499 20.98 23.5585 21.1 23.6379C21.22 23.7173 21.32 23.8364 21.4 23.9753C21.48 24.1341 21.52 24.3326 21.52 24.5707V34.0379H19.66Z" fill="white"/>
<path d="M22.98 34.0379V23.499C23.1 23.4791 23.22 23.4593 23.32 23.4593C23.44 23.4395 23.52 23.4395 23.6 23.4395C23.72 23.4395 23.86 23.4593 24.02 23.4791C24.16 23.499 24.3 23.5585 24.42 23.6379C24.54 23.7173 24.64 23.8364 24.72 23.9753C24.8 24.1341 24.84 24.3326 24.84 24.5707V34.0379H22.98Z" fill="white"/>
</g>
<defs>
<clipPath id="clip0_1911_5596">
<rect width="130" height="52" fill="white"/>
</clipPath>
</defs>
</svg>
