<svg width="50" height="50" viewBox="0 0 50 50" fill="none" xmlns="http://www.w3.org/2000/svg">
<path d="M5 43.3333C5 43.7935 5.37313 44.1667 5.83333 44.1667H20.8333C21.2935 44.1667 21.6667 43.7935 21.6667 43.3333V39.1833C21.6622 37.3242 20.4317 35.6905 18.6458 35.1733L15.8333 34.3701V33.3118C16.8787 32.5313 17.4963 31.3045 17.5 30V29.1667C17.9602 29.1667 18.3333 28.7935 18.3333 28.3333V27.5C18.3333 24.7388 16.0946 22.5 13.3333 22.5C10.5721 22.5 8.33333 24.7388 8.33333 27.5V28.3333C8.33333 28.7935 8.70646 29.1667 9.16667 29.1667V30C9.17033 31.3045 9.788 32.5313 10.8333 33.3118V34.3701L8.02165 35.1733C6.23535 35.6901 5.00407 37.3238 5 39.1833V43.3333ZM13.3333 24.1667C15.1656 24.1667 16.6545 25.6453 16.6667 27.4776C16.4274 27.4194 16.226 27.2587 16.1165 27.0382L15.7458 26.2952C15.6392 26.0807 15.4456 25.9229 15.2144 25.8614C14.9829 25.7996 14.7367 25.8407 14.5374 25.9733L13.2975 26.8001C12.6131 27.2571 11.8087 27.5008 10.9859 27.5H10C10 25.6592 11.4925 24.1667 13.3333 24.1667ZM10.9859 29.1667C12.1379 29.1679 13.2638 28.8265 14.2216 28.1868L14.6781 27.8825C14.9406 28.3455 15.3459 28.7109 15.8333 28.9242V30C15.8333 31.3806 14.7139 32.5 13.3333 32.5C11.9527 32.5 10.8333 31.3806 10.8333 30V29.1667H10.9859ZM13.3333 34.1667C13.6133 34.1671 13.8924 34.139 14.1667 34.0833V35C14.1695 35.2372 14.2741 35.4618 14.4543 35.6169L13.3333 36.4583L12.2123 35.6169C12.3926 35.4618 12.4972 35.2372 12.5 35V34.0833C12.7743 34.139 13.0534 34.1671 13.3333 34.1667ZM6.66667 39.1833C6.6687 38.0672 7.40723 37.0866 8.479 36.7757L10.2917 36.2594L12.8333 38.1665C13.1295 38.3891 13.5372 38.3891 13.8334 38.1665L16.3749 36.2594L18.1885 36.7765C19.2598 37.087 19.998 38.0676 20 39.1833V42.5H18.3333V39.1667H16.6667V42.5H10V39.1667H8.33333V42.5H6.66667V39.1833Z" fill="#354BB4"/>
<path d="M44.1667 39.1665C45.5473 39.1665 46.6667 38.0471 46.6667 36.6665V26.6665C46.6667 25.2859 45.5473 24.1665 44.1667 24.1665H27.5C26.1194 24.1665 25 25.2859 25 26.6665V36.6665C25 38.0471 26.1194 39.1665 27.5 39.1665H33.3333V42.4998H31.6667V44.1665H40V42.4998H38.3333V39.1665H44.1667ZM27.5 37.4998C27.0398 37.4998 26.6667 37.1267 26.6667 36.6665V26.6665C26.6667 26.2063 27.0398 25.8332 27.5 25.8332H44.1667C44.6269 25.8332 45 26.2063 45 26.6665V36.6665C45 37.1267 44.6269 37.4998 44.1667 37.4998H38.3333V33.3332C38.3333 32.873 37.9602 32.4998 37.5 32.4998H34.1667C33.7065 32.4998 33.3333 32.873 33.3333 33.3332V37.4998H27.5ZM35 42.4998V34.1665H36.6667V42.4998H35Z" fill="#354BB4"/>
<path d="M16.6666 16.6667H21.6666V20.8333C21.6666 21.1702 21.8697 21.4742 22.1809 21.6032C22.4922 21.7322 22.8507 21.6606 23.0892 21.4225L27.845 16.6667H38.3333C39.7139 16.6667 40.8333 15.5473 40.8333 14.1667V2.5C40.8333 1.11938 39.7139 0 38.3333 0H16.6666C15.286 0 14.1666 1.11938 14.1666 2.5V14.1667C14.1666 15.5473 15.286 16.6667 16.6666 16.6667ZM15.8333 2.5C15.8333 2.03979 16.2064 1.66667 16.6666 1.66667H38.3333C38.7935 1.66667 39.1666 2.03979 39.1666 2.5V14.1667C39.1666 14.6269 38.7935 15 38.3333 15H27.5C27.279 15 27.067 15.0879 26.9108 15.2441L23.3333 18.8216V15.8333C23.3333 15.3731 22.9602 15 22.5 15H16.6666C16.2064 15 15.8333 14.6269 15.8333 14.1667V2.5Z" fill="#354BB4"/>
<path d="M50 45H0V46.6667H1.66667V49.1667C1.66667 49.6269 2.03979 50 2.5 50H47.5C47.9602 50 48.3333 49.6269 48.3333 49.1667V46.6667H50V45ZM46.6667 48.3333H3.33333V46.6667H46.6667V48.3333Z" fill="#354BB4"/>
<path d="M20 4.1665H35V5.83317H20V4.1665Z" fill="#354BB4"/>
<path d="M20 7.5H35V9.16667H20V7.5Z" fill="#354BB4"/>
<path d="M20 10.8335H35V12.5002H20V10.8335Z" fill="#354BB4"/>
<path d="M0.833333 28.3332H5V26.6665H1.66667V8.33317H5.83333V6.6665H0.833333C0.373128 6.6665 0 7.03963 0 7.49984V27.4998C0 27.96 0.373128 28.3332 0.833333 28.3332Z" fill="#354BB4"/>
<path d="M7.5 6.6665H9.16667V8.33317H7.5V6.6665Z" fill="#354BB4"/>
<path d="M10.8334 6.6665H12.5V8.33317H10.8334V6.6665Z" fill="#354BB4"/>
<path d="M45 15.8332H46.6667V7.49984C46.6667 7.03963 46.2935 6.6665 45.8333 6.6665H42.5V8.33317H45V15.8332Z" fill="#354BB4"/>
<path d="M45 17.5H46.6667V19.1667H45V17.5Z" fill="#354BB4"/>
<path d="M45 20.8335H46.6667V22.5002H45V20.8335Z" fill="#354BB4"/>
</svg>
